<?xml version="1.0" encoding="UTF-8" standalone="no"?>
<!-- Created with Inkscape (http://www.inkscape.org/) -->

<svg
   xmlns:dc="http://purl.org/dc/elements/1.1/"
   xmlns:cc="http://creativecommons.org/ns#"
   xmlns:rdf="http://www.w3.org/1999/02/22-rdf-syntax-ns#"
   xmlns:svg="http://www.w3.org/2000/svg"
   xmlns="http://www.w3.org/2000/svg"
   version="1.1"
   width="198.39737"
   height="151.0352"
   id="svg10996"
   xml:space="preserve"><metadata
     id="metadata11002"><rdf:RDF><cc:Work
         rdf:about=""><dc:format>image/svg+xml</dc:format><dc:type
           rdf:resource="http://purl.org/dc/dcmitype/StillImage" /><dc:title></dc:title></cc:Work></rdf:RDF></metadata><defs
     id="defs11000"><clipPath
       id="clipPath11142"><path
         d="m 221.575,191.542 309.153,0 0,237.906 -309.153,0 0,-237.906 z"
         id="path11144" /></clipPath><clipPath
       id="clipPath11158"><path
         d="m 221.575,191.542 309.153,0 0,237.906 -309.153,0 0,-237.906 z"
         id="path11160" /></clipPath><clipPath
       id="clipPath11390"><path
         d="m 381.496,92.052 125.337,0 0,96.452 -125.337,0 0,-96.452 z"
         id="path11392" /></clipPath><clipPath
       id="clipPath11406"><path
         d="m 381.496,92.052 125.337,0 0,96.452 -125.337,0 0,-96.452 z"
         id="path11408" /></clipPath><clipPath
       id="clipPath11642"><path
         d="m 225.118,90.159 74.72,0 0,57.5 -74.72,0 0,-57.5 z"
         id="path11644" /></clipPath><clipPath
       id="clipPath11658"><path
         d="m 225.118,90.159 74.72,0 0,57.5 -74.72,0 0,-57.5 z"
         id="path11660" /></clipPath><clipPath
       id="clipPath11890"><path
         d="m 0,0 1190.551,0 0,595.276 L 0,595.276 0,0 z"
         id="path11892" /></clipPath><clipPath
       id="clipPath11158-1"><path
         d="m 221.575,191.542 309.153,0 0,237.906 -309.153,0 0,-237.906 z"
         id="path11160-8" /></clipPath></defs><g
     transform="matrix(1.25,0,0,-1.25,-749.73171,764.45515)"
     id="g11004"><g
       transform="matrix(0.52689761,0,0,0.52689761,480.95194,387.37477)"
       id="g11900"><g
         transform="translate(225.53419,425.4894)"
         id="g11134"><path
           d="m 0,0 301.231,0 0,-182.205 L 0,-229.32 0,0 z"
           id="path11136"
           style="fill:#ffffff;fill-opacity:1;fill-rule:nonzero;stroke:none" /></g><g
         transform="translate(225.53419,425.4894)"
         id="g11150"><path
           d="m 0,0 301.231,0 0,-182.205 L 0,-229.32 0,0 z"
           id="path11152"
           style="fill:#0067b1;fill-opacity:1;fill-rule:nonzero;stroke:none" /></g><g
         id="g11154"><g
           clip-path="url(#clipPath11158-1)"
           id="g11156"><g
             transform="translate(290.4724,266.87289)"
             id="g11162"><path
               d="m 0,0 c 0.998,0.282 3.453,1.029 5.864,2.16 2.994,1.403 6.98,3.678 10.969,7.18 8.047,7.057 15.953,18.975 15.953,38.24 l 0,22.114 -32.786,0 -32.786,0 0,-22.114 c 0,-19.265 7.906,-31.183 15.953,-38.24 C -12.844,5.838 -8.858,3.563 -5.864,2.16 -3.453,1.029 -0.998,0.282 0,0"
               id="path11164"
               style="fill:#ffffff;fill-opacity:1;fill-rule:nonzero;stroke:none" /></g><g
             transform="translate(290.4724,266.87289)"
             id="g11166"><path
               d="m 0,0 c 0.998,0.282 3.453,1.029 5.864,2.16 2.994,1.403 6.98,3.678 10.969,7.18 8.047,7.057 15.953,18.975 15.953,38.24 l 0,22.114 -32.786,0 -32.786,0 0,-22.114 c 0,-19.265 7.906,-31.183 15.953,-38.24 C -12.844,5.838 -8.858,3.563 -5.864,2.16 -3.453,1.029 -0.998,0.282 0,0 z"
               id="path11168"
               style="fill:none;stroke:#ffffff;stroke-width:0.34400001;stroke-linecap:butt;stroke-linejoin:miter;stroke-miterlimit:3.86400008;stroke-opacity:1;stroke-dasharray:none" /></g><g
             transform="translate(356.3978,358.433)"
             id="g11170"><path
               d="m 0,0 c 0,-2.393 0.2,-3.135 1.295,-3.663 0.288,-0.144 0.619,-0.239 0.978,-0.3 0.379,-0.067 0.751,-0.1 1.08,-0.139 0.192,-0.023 0.372,-0.046 0.533,-0.079 0.17,-0.034 0.357,-0.085 0.536,-0.167 0.408,-0.19 0.76,-0.564 0.76,-1.157 0,-1.054 -0.99,-1.326 -1.701,-1.326 -0.428,0 -2.727,0.267 -7,0.267 -4.274,0 -6.573,-0.267 -7.001,-0.267 -0.711,0 -1.701,0.272 -1.701,1.326 0,0.593 0.354,0.967 0.762,1.157 0.177,0.082 0.367,0.133 0.536,0.167 0.162,0.033 0.339,0.056 0.531,0.079 0.329,0.039 0.701,0.072 1.083,0.139 0.356,0.061 0.69,0.156 0.975,0.3 1.095,0.528 1.295,1.27 1.295,3.663 l 0,24.046 c 0,2.324 -0.241,3.068 -1.28,3.551 -0.264,0.12 -0.582,0.202 -0.941,0.264 -0.378,0.064 -0.752,0.1 -1.088,0.138 l -0.531,0.075 c -0.195,0.036 -0.367,0.077 -0.511,0.131 -0.32,0.118 -0.831,0.42 -0.831,1.077 0,1.031 1.042,1.275 1.701,1.275 0.267,0 1.711,-0.108 4.33,-0.108 3.792,0 7.213,0.267 10.205,0.267 9.098,0 13.993,-2.819 13.993,-9.876 0,-5.303 -3.176,-8.663 -8.963,-9.866 L 8.75,10.91 19.485,-1.657 c 1.039,-1.211 2.258,-1.837 3.266,-2.273 0.541,-0.236 1.011,-0.413 1.344,-0.587 0.185,-0.095 0.39,-0.218 0.562,-0.39 0.179,-0.182 0.351,-0.454 0.351,-0.811 0,-0.885 -0.98,-1.221 -1.598,-1.221 -0.267,0 -1.657,0.213 -4.22,0.213 -0.856,0 -1.711,-0.051 -2.511,-0.051 -1.116,0 -2.011,0.051 -2.876,1.131 L 2.257,8.84 C 1.665,9.602 1.247,9.786 0.162,9.786 l -0.183,0 L 0,0 z m 0.333,12.49 c 0.054,0.003 0.134,0.005 0.262,0.005 7.224,0 9.892,2.04 9.892,7.544 0,5.641 -2.62,8.13 -8.609,8.13 -0.993,0 -1.411,-0.121 -1.598,-0.267 C 0.156,27.807 0,27.594 0,26.824 L 0,13.252 C 0,13.008 0.005,12.808 0.033,12.646 L 0.051,12.534 0.162,12.503 C 0.223,12.487 0.28,12.487 0.333,12.49"
               id="path11172"
               style="fill:#ffffff;fill-opacity:1;fill-rule:evenodd;stroke:none" /></g><g
             transform="translate(430.7653,389.7917)"
             id="g11174"><path
               d="m 0,0 c 5.802,0 11.292,-2.324 15.071,-6.326 3.296,-3.522 4.85,-7.829 4.85,-13.17 0,-5.374 -2.159,-10.489 -5.792,-13.898 -3.668,-3.448 -9.088,-5.546 -14.345,-5.546 -5.566,0 -10.612,1.878 -14.344,5.328 -4.107,3.832 -6.008,8.252 -6.008,14.009 0,5.171 1.955,9.848 5.723,13.618 C -10.851,-2.05 -5.692,0 0,0 m 11.974,-19.444 c 0,10.966 -5.084,16.84 -12.19,16.84 -6.954,0 -12.3,-6.154 -12.3,-16.733 0,-10.656 5.256,-16.999 12.19,-16.999 6.908,0 12.3,5.943 12.3,16.892"
               id="path11176"
               style="fill:#ffffff;fill-opacity:1;fill-rule:evenodd;stroke:none" /></g><g
             transform="translate(260.6844,386.2195)"
             id="g11178"><path
               d="M 0,0 C -0.377,0.064 -0.752,0.1 -1.088,0.138 L -1.619,0.21 c -0.195,0.036 -0.364,0.08 -0.51,0.131 -0.321,0.121 -0.831,0.423 -0.831,1.08 0,1.031 1.041,1.272 1.703,1.272 0.587,0 2.937,-0.213 6.998,-0.213 4.222,0 6.572,0.213 7,0.213 0.344,0 0.711,-0.041 1.021,-0.192 0.347,-0.164 0.68,-0.503 0.68,-1.029 0,-0.477 -0.269,-0.81 -0.605,-0.992 C 13.573,0.333 13.247,0.272 12.988,0.228 12.48,0.146 11.756,0.085 10.905,-0.149 9.691,-0.48 9.26,-1.267 9.26,-3.817 l 0,-9.945 17.811,0 0,9.945 c 0,2.324 -0.244,3.068 -1.283,3.55 -0.267,0.123 -0.587,0.21 -0.952,0.277 -0.377,0.069 -0.756,0.11 -1.092,0.154 -0.336,0.046 -0.726,0.105 -1.039,0.228 -0.318,0.126 -0.819,0.434 -0.819,1.08 0,0.526 0.336,0.865 0.68,1.029 0.311,0.151 0.68,0.192 1.021,0.192 0.429,0 2.778,-0.213 7.001,-0.213 4.06,0 6.413,0.213 7,0.213 0.662,0 1.701,-0.241 1.701,-1.272 0,-0.657 -0.508,-0.959 -0.831,-1.08 C 38.314,0.29 38.145,0.246 37.947,0.21 L 37.416,0.138 C 37.083,0.1 36.708,0.064 36.331,0 c -0.362,-0.062 -0.68,-0.144 -0.944,-0.267 -1.036,-0.482 -1.28,-1.226 -1.28,-3.55 l 0,-24.044 c 0,-2.393 0.203,-3.135 1.296,-3.666 0.287,-0.143 0.618,-0.236 0.977,-0.297 0.38,-0.069 0.754,-0.1 1.08,-0.139 0.192,-0.023 0.372,-0.048 0.533,-0.079 0.17,-0.036 0.36,-0.085 0.537,-0.17 0.407,-0.187 0.759,-0.561 0.759,-1.154 0,-1.054 -0.988,-1.326 -1.701,-1.326 -0.428,0 -2.727,0.267 -7,0.267 -4.274,0 -6.572,-0.267 -7.001,-0.267 -0.71,0 -1.701,0.272 -1.701,1.326 0,0.593 0.352,0.967 0.762,1.154 0.177,0.085 0.367,0.134 0.536,0.17 0.159,0.031 0.339,0.056 0.531,0.079 0.329,0.039 0.701,0.07 1.083,0.139 0.357,0.061 0.69,0.154 0.975,0.297 1.095,0.531 1.298,1.273 1.298,3.666 l 0,10.961 -17.811,0 0,-10.961 c 0,-2.368 0.244,-3.132 1.35,-3.666 0.29,-0.143 0.618,-0.236 0.969,-0.297 0.377,-0.069 0.742,-0.1 1.062,-0.139 0.19,-0.023 0.367,-0.048 0.524,-0.082 0.169,-0.033 0.356,-0.085 0.531,-0.169 0.41,-0.192 0.746,-0.57 0.746,-1.152 0,-1.054 -0.987,-1.326 -1.701,-1.326 -0.428,0 -2.724,0.267 -7,0.267 -4.274,0 -6.572,-0.267 -6.998,-0.267 -0.713,0 -1.703,0.272 -1.703,1.326 0,0.593 0.354,0.967 0.762,1.154 0.177,0.085 0.366,0.134 0.536,0.17 0.161,0.031 0.338,0.056 0.531,0.079 0.328,0.039 0.703,0.07 1.08,0.139 0.359,0.061 0.692,0.154 0.977,0.297 1.095,0.531 1.298,1.273 1.298,3.666 l 0,24.044 c 0,2.324 -0.244,3.068 -1.28,3.55 C 0.68,-0.144 0.362,-0.062 0,0"
               id="path11180"
               style="fill:#ffffff;fill-opacity:1;fill-rule:nonzero;stroke:none" /></g><g
             transform="translate(334.4619,357.5262)"
             id="g11182"><path
               d="m 0,0 c 0.274,0.467 0.454,0.906 0.582,1.306 0.134,0.418 0.211,0.79 0.28,1.103 L 0.985,2.904 C 1.029,3.058 1.088,3.227 1.177,3.389 1.393,3.776 1.765,4.053 2.293,4.053 2.917,4.053 3.33,3.689 3.494,3.15 3.56,2.937 3.589,2.704 3.602,2.48 3.617,2.265 3.622,2.009 3.622,1.708 3.622,0 3.409,-1.819 3.409,-3.689 c 0,-1.806 -0.449,-2.237 -2.503,-2.237 -1.016,0 -7.588,0.267 -19.825,0.267 -4.276,0 -6.574,-0.267 -7,-0.267 -0.713,0 -1.701,0.275 -1.701,1.329 0,0.59 0.352,0.967 0.76,1.154 0.179,0.083 0.366,0.134 0.536,0.17 0.161,0.031 0.341,0.056 0.533,0.079 0.329,0.039 0.701,0.069 1.08,0.139 0.359,0.061 0.69,0.154 0.978,0.297 1.092,0.529 1.295,1.273 1.295,3.666 l 0,24.044 c 0,2.324 -0.244,3.068 -1.28,3.55 -0.264,0.123 -0.582,0.205 -0.944,0.267 -0.377,0.064 -0.752,0.097 -1.085,0.138 l -0.534,0.072 c -0.195,0.036 -0.364,0.08 -0.508,0.131 -0.32,0.121 -0.831,0.423 -0.831,1.08 0,1.031 1.039,1.275 1.701,1.275 0.534,0 3.366,-0.216 8.388,-0.216 3.848,0 8.176,0.162 13.198,0.162 l 1.178,0 c 0.603,0 1.113,-0.005 1.534,-0.031 0.431,-0.023 0.833,-0.074 1.18,-0.187 0.862,-0.282 1.231,-0.926 1.231,-1.806 0,-0.48 -0.162,-1.388 -0.162,-2.883 0,-1.337 0.216,-2.245 0.216,-2.781 0,-0.705 -0.254,-1.596 -1.329,-1.596 -0.582,0 -0.967,0.326 -1.172,0.747 -0.085,0.18 -0.136,0.369 -0.175,0.536 l -0.092,0.531 c -0.051,0.329 -0.103,0.705 -0.208,1.106 -0.1,0.374 -0.246,0.754 -0.474,1.113 -1.35,2.157 -4.01,2.486 -9.153,2.486 l -0.428,0 c -0.893,0 -1.583,0 -2.114,-0.049 -0.521,-0.046 -0.749,-0.128 -0.857,-0.203 -0.064,-0.074 -0.092,-0.118 -0.121,-0.174 -0.03,-0.059 -0.064,-0.141 -0.084,-0.228 -0.069,-0.316 -0.09,-0.775 -0.09,-1.488 l 0,-11.508 0.19,0.013 c 3.571,0.244 5.218,0.795 6.292,2.527 0.236,0.395 0.39,0.808 0.506,1.231 0.12,0.444 0.187,0.87 0.251,1.239 l 0.108,0.577 c 0.038,0.175 0.09,0.367 0.169,0.549 0.159,0.375 0.506,0.821 1.147,0.821 1.054,0 1.382,-0.911 1.382,-1.649 0,-1.067 -0.266,-2.991 -0.266,-5.718 0,-3.633 0.318,-5.877 0.318,-6.785 0,-0.759 -0.359,-1.704 -1.326,-1.704 -0.511,0 -0.832,0.311 -1.001,0.624 C -7.757,6.859 -7.809,7 -7.85,7.134 l -0.11,0.42 c -0.059,0.265 -0.126,0.58 -0.223,0.934 -0.095,0.331 -0.218,0.695 -0.4,1.083 -0.921,1.972 -2.73,2.673 -6.649,2.673 l -0.18,0 -0.041,-8.129 c 0,-5.826 0.282,-7.063 7.113,-7.063 4.69,0 7.014,0.708 8.34,2.948"
               id="path11184"
               style="fill:#ffffff;fill-opacity:1;fill-rule:nonzero;stroke:none" /></g><g
             transform="translate(402.3526,354.4487)"
             id="g11186"><path
               d="M 0,0 C 0.421,-0.069 0.821,-0.1 1.172,-0.136 L 1.739,-0.21 c 0.175,-0.029 0.359,-0.075 0.541,-0.152 0.421,-0.177 0.796,-0.546 0.796,-1.157 0,-0.99 -0.973,-1.328 -1.752,-1.328 -0.483,0 -2.997,0.266 -7.481,0.266 -4.489,0 -6.949,-0.266 -7.431,-0.266 -0.726,0 -1.808,0.302 -1.808,1.328 0,0.619 0.395,0.985 0.81,1.16 0.182,0.077 0.377,0.12 0.557,0.151 l 0.567,0.075 c 0.356,0.033 0.762,0.064 1.187,0.133 0.406,0.067 0.801,0.167 1.163,0.331 1.213,0.546 1.487,1.326 1.487,3.653 l 0,24.046 c 0,2.296 -0.284,3.063 -1.331,3.55 -0.257,0.116 -0.598,0.2 -1.013,0.264 -0.431,0.065 -0.872,0.101 -1.273,0.136 -0.4,0.041 -0.846,0.088 -1.198,0.193 -0.269,0.082 -0.956,0.346 -0.956,1.093 0,0.456 0.315,0.723 0.477,0.831 0.179,0.123 0.395,0.208 0.585,0.267 0.382,0.115 0.841,0.177 1.228,0.177 0.585,0 2.886,-0.213 6.949,-0.213 4.218,0 6.624,0.213 7.05,0.213 0.349,0 0.774,-0.046 1.141,-0.147 0.175,-0.048 0.39,-0.125 0.572,-0.248 0.17,-0.116 0.47,-0.38 0.47,-0.826 0,-0.613 -0.47,-0.911 -0.767,-1.032 C 2.019,32.173 1.655,32.114 1.334,32.07 0.695,31.988 -0.151,31.929 -0.998,31.698 -2.209,31.367 -2.64,30.58 -2.64,28.03 l 0,-24.046 c 0,-2.378 0.331,-3.153 1.483,-3.651 C -0.798,0.167 -0.4,0.067 0,0"
               id="path11188"
               style="fill:#ffffff;fill-opacity:1;fill-rule:nonzero;stroke:none" /></g><g
             transform="translate(481.38831,354.4487)"
             id="g11190"><path
               d="m 0,0 c 0.426,-0.069 0.831,-0.1 1.193,-0.133 l 0.572,-0.075 c 0.179,-0.031 0.369,-0.077 0.549,-0.151 0.415,-0.175 0.808,-0.541 0.808,-1.16 0,-1.026 -1.083,-1.328 -1.809,-1.328 -0.425,0 -2.885,0.266 -7.48,0.266 -4.594,0 -7.105,-0.266 -7.536,-0.266 -0.78,0 -1.753,0.338 -1.753,1.328 0,0.619 0.396,0.985 0.811,1.16 0.18,0.077 0.375,0.12 0.557,0.151 l 0.567,0.075 c 0.354,0.033 0.759,0.064 1.185,0.133 0.408,0.067 0.813,0.169 1.172,0.333 1.188,0.501 1.48,1.255 1.48,3.651 l 0,26.932 c 0,0.313 -0.046,0.472 -0.087,0.554 l -0.064,0.072 c -0.246,0.151 -0.467,0.21 -0.826,0.246 -0.372,0.036 -0.813,0.044 -1.329,0.044 l -2.139,0 c -4.795,0 -7.085,-0.277 -8.152,-1.816 -0.537,-0.78 -0.706,-1.74 -0.832,-2.632 -0.069,-0.488 -0.13,-0.911 -0.22,-1.211 -0.09,-0.295 -0.354,-0.967 -1.106,-0.967 -0.467,0 -0.877,0.215 -1.082,0.679 -0.077,0.175 -0.106,0.355 -0.121,0.503 -0.015,0.134 -0.02,0.29 -0.02,0.467 l 0,6.039 c 0,1.526 0.887,1.967 2.29,1.967 0.906,0 6.629,-0.374 17.205,-0.374 10.582,0 16.297,0.374 17.205,0.374 1.447,0 2.24,-0.474 2.24,-1.967 l 0,-6.039 -0.011,-0.441 c -0.01,-0.133 -0.025,-0.305 -0.084,-0.477 -0.177,-0.495 -0.593,-0.731 -1.073,-0.731 -0.746,0 -1.023,0.659 -1.118,0.954 -0.049,0.164 -0.095,0.359 -0.136,0.58 l -0.1,0.633 c -0.139,0.896 -0.326,1.863 -0.862,2.645 -0.559,0.826 -1.472,1.303 -3.014,1.557 -1.608,0.262 -3.694,0.257 -6.313,0.257 l -0.908,0 c -0.536,0 -0.988,-0.005 -1.357,-0.039 -0.362,-0.031 -0.577,-0.084 -0.703,-0.141 L -2.486,31.568 C -2.501,31.539 -2.54,31.47 -2.576,31.362 -2.617,31.252 -2.65,31.101 -2.65,30.916 l 0,-26.932 c 0,-2.396 0.295,-3.15 1.483,-3.651 C -0.806,0.169 -0.405,0.067 0,0"
               id="path11192"
               style="fill:#ffffff;fill-opacity:1;fill-rule:nonzero;stroke:none" /></g><g
             transform="translate(356.3177,335.7795)"
             id="g11194"><path
               d="m 0,0 c 0.313,0.521 0.782,0.885 1.475,0.885 0.705,0 1.198,-0.316 1.529,-0.893 0.141,-0.243 0.251,-0.526 0.351,-0.826 l 0.324,-1.051 7.469,-24.408 4.207,13.675 c 1.219,3.865 1.729,6.833 1.729,8.703 0,1.016 -0.585,1.773 -1.998,1.994 -0.626,0.11 -1.136,0.125 -1.485,0.202 -0.518,0.111 -1.111,0.436 -1.111,1.278 0,0.531 0.331,0.898 0.7,1.09 0.342,0.177 0.757,0.236 1.162,0.236 0.642,0 2.725,-0.213 6.36,-0.213 1.495,0 2.616,0.159 3.311,0.159 0.634,0 1.539,-0.292 1.539,-1.218 0,-0.424 -0.205,-0.747 -0.469,-0.96 -0.236,-0.184 -0.516,-0.29 -0.747,-0.361 -0.41,-0.131 -0.954,-0.231 -1.5,-0.439 -1.26,-0.488 -1.77,-1.721 -2.658,-4.605 L 11.8,-33.684 c -0.326,-1.059 -0.67,-1.919 -1.047,-2.529 -0.354,-0.567 -0.879,-1.144 -1.636,-1.144 -0.775,0 -1.288,0.449 -1.632,1.018 -0.318,0.531 -0.554,1.265 -0.79,2.078 L -0.3,-10.51 -7.38,-33.889 c -0.298,-0.998 -0.6,-1.816 -0.975,-2.401 -0.39,-0.603 -0.936,-1.067 -1.711,-1.067 -0.831,0 -1.339,0.51 -1.675,1.105 -0.149,0.264 -0.29,0.593 -0.433,0.98 -0.129,0.346 -0.265,0.752 -0.414,1.203 l -9.245,28.913 c -0.697,2.198 -1.133,2.822 -2.203,3.088 -0.603,0.129 -1.183,0.154 -1.608,0.247 -0.496,0.107 -1.299,0.408 -1.299,1.38 0,0.467 0.221,0.885 0.696,1.082 0.177,0.075 0.359,0.105 0.513,0.118 0.138,0.016 0.305,0.018 0.492,0.018 0.695,0 2.832,-0.213 6.465,-0.213 2.406,0 4.65,0.267 6.626,0.267 0.518,0 1.008,-0.036 1.39,-0.182 0.446,-0.167 0.846,-0.539 0.846,-1.144 0,-0.913 -0.751,-1.147 -1.187,-1.219 -0.362,-0.059 -0.89,-0.071 -1.547,-0.202 -1.855,-0.362 -2.129,-0.76 -2.129,-1.624 0,-0.854 0.621,-3.355 1.895,-7.724 1.091,-3.745 2.627,-8.758 4.556,-15.06 l 0.175,-0.572 7.475,25.116 C -0.472,-1.083 -0.272,-0.452 0,0"
               id="path11196"
               style="fill:#ffffff;fill-opacity:1;fill-rule:nonzero;stroke:none" /></g><g
             transform="translate(481.37331,302.017)"
             id="g11198"><path
               d="m 0,0 c 0.426,-0.069 0.831,-0.1 1.193,-0.136 l 0.572,-0.072 c 0.174,-0.031 0.369,-0.074 0.549,-0.151 0.415,-0.175 0.808,-0.541 0.808,-1.16 0,-1.026 -1.083,-1.328 -1.809,-1.328 -0.425,0 -2.886,0.266 -7.48,0.266 -4.594,0 -7.105,-0.266 -7.536,-0.266 -0.78,0 -1.753,0.338 -1.753,1.328 0,0.619 0.39,0.988 0.806,1.16 0.185,0.077 0.38,0.12 0.562,0.151 l 0.567,0.072 c 0.354,0.036 0.759,0.067 1.185,0.136 0.408,0.067 0.808,0.169 1.167,0.333 1.188,0.498 1.485,1.252 1.485,3.651 l 0,26.932 c 0,0.313 -0.046,0.472 -0.092,0.557 l -0.064,0.069 c -0.241,0.151 -0.467,0.21 -0.821,0.246 -0.372,0.036 -0.813,0.044 -1.329,0.044 l -2.139,0 c -4.795,0 -7.085,-0.277 -8.152,-1.816 -0.537,-0.78 -0.706,-1.737 -0.832,-2.632 -0.069,-0.488 -0.13,-0.911 -0.22,-1.214 -0.09,-0.292 -0.354,-0.964 -1.106,-0.964 -0.467,0 -0.882,0.215 -1.082,0.677 -0.077,0.177 -0.106,0.357 -0.121,0.505 -0.015,0.134 -0.021,0.29 -0.021,0.467 l 0,6.039 c 0,1.526 0.883,1.967 2.291,1.967 0.906,0 6.624,-0.374 17.205,-0.374 10.582,0 16.297,0.374 17.205,0.374 1.447,0 2.234,-0.474 2.234,-1.967 l 0,-6.039 -0.005,-0.441 c -0.01,-0.133 -0.031,-0.305 -0.084,-0.477 -0.177,-0.495 -0.598,-0.731 -1.078,-0.731 -0.741,0 -1.018,0.659 -1.113,0.954 -0.049,0.164 -0.095,0.359 -0.136,0.58 l -0.1,0.633 c -0.144,0.898 -0.331,1.863 -0.867,2.645 -0.554,0.826 -1.467,1.303 -3.009,1.557 -1.609,0.262 -3.694,0.257 -6.313,0.257 l -0.908,0 c -0.536,0 -0.988,-0.005 -1.362,-0.036 -0.357,-0.034 -0.572,-0.087 -0.698,-0.144 L -2.486,31.568 C -2.501,31.539 -2.54,31.47 -2.576,31.362 -2.617,31.249 -2.65,31.101 -2.65,30.916 l 0,-26.932 c 0,-2.399 0.295,-3.153 1.483,-3.651 C -0.806,0.169 -0.405,0.067 0,0"
               id="path11200"
               style="fill:#ffffff;fill-opacity:1;fill-rule:nonzero;stroke:none" /></g><g
             transform="translate(437.5341,302.017)"
             id="g11202"><path
               d="m 0,0 c 0.431,-0.069 0.836,-0.1 1.193,-0.136 l 0.574,-0.072 c 0.177,-0.031 0.367,-0.074 0.547,-0.151 0.415,-0.175 0.813,-0.541 0.813,-1.16 0,-1.026 -1.088,-1.328 -1.809,-1.328 -0.43,0 -2.885,0.266 -7.48,0.266 -4.599,0 -7.11,-0.266 -7.536,-0.266 -0.783,0 -1.758,0.338 -1.758,1.328 0,0.619 0.396,0.988 0.811,1.16 0.185,0.077 0.375,0.12 0.557,0.151 l 0.567,0.072 c 0.354,0.036 0.759,0.067 1.19,0.136 0.408,0.067 0.808,0.169 1.167,0.333 1.188,0.498 1.48,1.252 1.48,3.651 l 0,26.932 c 0,0.313 -0.046,0.472 -0.087,0.557 l -0.064,0.069 c -0.241,0.151 -0.467,0.21 -0.826,0.246 -0.372,0.036 -0.808,0.044 -1.329,0.044 l -2.139,0 c -4.795,0 -7.085,-0.277 -8.152,-1.816 -0.532,-0.78 -0.701,-1.737 -0.832,-2.632 -0.069,-0.488 -0.125,-0.911 -0.22,-1.214 -0.085,-0.292 -0.349,-0.964 -1.106,-0.964 -0.462,0 -0.877,0.215 -1.077,0.677 -0.082,0.177 -0.111,0.357 -0.126,0.505 -0.015,0.134 -0.021,0.29 -0.021,0.467 l 0,6.039 c 0,1.526 0.888,1.967 2.291,1.967 0.911,0 6.629,-0.374 17.21,-0.374 10.577,0 16.292,0.374 17.205,0.374 1.447,0 2.235,-0.474 2.235,-1.967 l 0,-6.039 -0.011,-0.441 c -0.005,-0.133 -0.025,-0.305 -0.084,-0.477 -0.172,-0.495 -0.593,-0.731 -1.073,-0.731 -0.746,0 -1.023,0.659 -1.113,0.954 -0.054,0.164 -0.1,0.359 -0.136,0.58 l -0.105,0.633 c -0.139,0.898 -0.326,1.863 -0.862,2.645 -0.559,0.826 -1.472,1.303 -3.014,1.557 -1.603,0.262 -3.689,0.257 -6.313,0.257 l -0.908,0 c -0.536,0 -0.988,-0.005 -1.357,-0.036 -0.362,-0.034 -0.572,-0.087 -0.698,-0.144 l -0.09,-0.084 c -0.01,-0.029 -0.048,-0.098 -0.09,-0.206 -0.035,-0.113 -0.069,-0.261 -0.069,-0.446 l 0,-26.932 c 0,-2.399 0.29,-3.153 1.478,-3.651 C -0.806,0.169 -0.405,0.067 0,0"
               id="path11204"
               style="fill:#ffffff;fill-opacity:1;fill-rule:nonzero;stroke:none" /></g><g
             transform="translate(383.92999,304.1315)"
             id="g11206"><path
               d="m 0,0 c 0,-1.06 0.375,-1.624 1.298,-1.983 0.251,-0.103 0.51,-0.172 0.746,-0.223 L 2.817,-2.368 C 3.258,-2.476 4.115,-2.745 4.115,-3.74 4.115,-4.225 3.802,-4.561 3.468,-4.738 3.153,-4.9 2.765,-4.964 2.36,-4.964 c -0.746,0 -2.406,0.321 -4.971,0.321 -2.03,0 -3.579,-0.213 -4.487,-0.213 -0.49,0 -0.952,0.056 -1.316,0.221 -0.408,0.187 -0.762,0.554 -0.762,1.108 0,0.502 0.267,0.859 0.631,1.064 0.152,0.085 0.313,0.141 0.457,0.182 l 0.449,0.106 c 0.277,0.059 0.603,0.118 0.969,0.218 0.347,0.095 0.721,0.228 1.106,0.426 1.103,0.551 2.034,2.083 3.283,5.076 L 9.64,31.973 c 0.141,0.336 0.31,0.682 0.546,0.952 0.26,0.294 0.626,0.518 1.096,0.518 0.477,0 0.844,-0.229 1.108,-0.539 0.241,-0.28 0.426,-0.659 0.592,-1.041 L 24.79,2.091 c 0.916,-2.255 1.683,-3.41 2.807,-3.866 0.315,-0.134 0.641,-0.223 0.967,-0.293 0.341,-0.069 0.661,-0.115 0.936,-0.161 0.269,-0.052 0.621,-0.121 0.911,-0.282 0.361,-0.206 0.633,-0.562 0.633,-1.07 0,-0.508 -0.32,-0.86 -0.672,-1.044 -0.331,-0.17 -0.731,-0.231 -1.139,-0.231 -1.603,0 -3.896,0.213 -6.782,0.213 -2.14,0 -4.274,-0.321 -6.47,-0.321 -0.49,0 -0.957,0.059 -1.321,0.216 -0.39,0.166 -0.808,0.523 -0.808,1.116 0,0.654 0.518,0.972 0.857,1.11 0.351,0.144 0.828,0.234 1.329,0.316 2.093,0.274 2.303,0.751 2.303,1.19 0,0.375 -0.133,1.568 -0.751,3.155 l -2.278,6.044 -12.506,0 -2.165,-5.41 C 0.185,1.598 0,0.626 0,0 m 9.278,23.928 -5.274,-12.716 10.205,0 -4.931,12.716 z"
               id="path11208"
               style="fill:#ffffff;fill-opacity:1;fill-rule:evenodd;stroke:none" /></g><g
             transform="translate(488.46271,270.5155)"
             id="g11210"><path
               d="m 0,0 c -0.385,0.185 -0.482,0.41 -0.482,1.454 l 0,3.546 c 1.403,2.134 2.447,3.889 3.211,5.207 l 0.962,1.655 c 0.262,0.441 0.447,0.731 0.572,0.895 0.367,0.456 0.731,0.61 1.024,0.7 0.195,0.059 0.359,0.095 0.474,0.141 0.167,0.069 0.462,0.244 0.462,0.634 0,0.508 -0.521,0.657 -0.777,0.657 -0.116,0 -0.762,-0.116 -1.95,-0.116 -1.062,0 -1.782,0.092 -2.083,0.092 -0.195,0 -0.4,-0.028 -0.577,-0.12 -0.21,-0.113 -0.359,-0.318 -0.359,-0.582 0,-0.485 0.416,-0.639 0.6,-0.688 C 1.242,13.432 1.488,13.401 1.798,13.329 1.978,13.293 2.08,13.242 2.08,12.885 2.08,12.477 1.773,11.751 1.077,10.528 0.485,9.486 -0.331,8.175 -1.313,6.549 l -2.72,5.256 c -0.361,0.7 -0.456,1.152 -0.456,1.242 0,0.128 0.059,0.32 0.59,0.418 l 0.518,0.036 c 0.233,0.018 0.675,0.141 0.675,0.682 0,0.28 -0.139,0.523 -0.421,0.641 -0.19,0.08 -0.421,0.088 -0.605,0.088 -0.606,0 -1.693,-0.095 -3.292,-0.095 -1.182,0 -1.903,0.072 -2.16,0.072 -0.184,0 -0.4,-0.016 -0.592,-0.106 -0.239,-0.118 -0.39,-0.346 -0.39,-0.62 0,-0.457 0.336,-0.647 0.587,-0.721 0.165,-0.044 0.401,-0.067 0.69,-0.118 0.211,-0.034 0.352,-0.126 0.506,-0.321 0.087,-0.105 0.172,-0.233 0.272,-0.405 l 0.326,-0.59 3.953,-7.149 0,-3.405 C -3.832,0.408 -3.927,0.185 -4.315,0 -4.42,-0.054 -4.548,-0.09 -4.699,-0.115 l -0.467,-0.059 c -0.331,-0.054 -0.421,-0.077 -0.516,-0.118 -0.215,-0.098 -0.426,-0.303 -0.426,-0.639 0,-0.624 0.636,-0.729 0.913,-0.729 0.185,0 1.183,0.116 3.035,0.116 1.86,0 2.855,-0.116 3.042,-0.116 0.316,0 0.885,0.126 0.885,0.729 0,0.328 -0.2,0.536 -0.415,0.636 L 0.841,-0.174 0.38,-0.115 C 0.236,-0.09 0.105,-0.054 0,0"
               id="path11212"
               style="fill:#ffffff;fill-opacity:1;fill-rule:nonzero;stroke:none" /></g><g
             transform="translate(469.5742,270.5255)"
             id="g11214"><path
               d="m 0,0 c -0.421,0.174 -0.552,0.408 -0.552,1.444 l 0,11.685 c 0.431,0.246 0.621,0.249 0.847,0.249 l 0.398,0 c 1.126,0 2.024,0.002 2.714,-0.111 0.651,-0.105 0.997,-0.3 1.208,-0.61 0.21,-0.311 0.284,-0.698 0.351,-1.085 l 0.105,-0.549 c 0.039,-0.131 0.19,-0.521 0.626,-0.521 0.264,0 0.511,0.133 0.611,0.418 l 0.046,0.449 0,2.619 c 0,0.759 -0.436,1.006 -1.118,1.006 -0.395,0 -2.876,-0.165 -7.465,-0.165 -4.589,0 -7.075,0.165 -7.465,0.165 -0.657,0 -1.149,-0.223 -1.149,-1.006 l 0,-2.619 c 0.02,-0.29 0.036,-0.385 0.077,-0.482 0.115,-0.262 0.354,-0.385 0.605,-0.385 0.441,0 0.588,0.398 0.626,0.526 0.041,0.138 0.072,0.328 0.1,0.549 0.057,0.39 0.126,0.772 0.336,1.077 0.411,0.59 1.303,0.724 3.412,0.724 l 0.929,0 c 0.218,0 0.405,-0.003 0.559,-0.018 0.272,-0.062 0.292,-0.105 0.292,-0.231 l 0,-11.685 C -3.907,0.408 -4.038,0.174 -4.458,0 -4.599,-0.064 -4.764,-0.108 -4.93,-0.136 -5.11,-0.164 -5.287,-0.177 -5.441,-0.192 -5.777,-0.241 -5.872,-0.262 -5.967,-0.3 c -0.22,-0.09 -0.446,-0.295 -0.446,-0.641 0,-0.573 0.562,-0.729 0.911,-0.729 0.187,0 1.28,0.118 3.273,0.118 1.993,0 3.06,-0.118 3.245,-0.118 0.313,0 0.934,0.133 0.934,0.729 0,0.346 -0.226,0.551 -0.442,0.641 L 0.977,-0.192 C 0.826,-0.177 0.652,-0.164 0.472,-0.136 0.3,-0.108 0.141,-0.064 0,0"
               id="path11216"
               style="fill:#ffffff;fill-opacity:1;fill-rule:nonzero;stroke:none" /></g><g
             transform="translate(454.3484,270.5229)"
             id="g11218"><path
               d="m 0,0 c -0.405,0.174 -0.552,0.421 -0.552,1.444 l 0,10.436 c 0,1.1 0.185,1.331 0.603,1.444 0.359,0.097 0.721,0.123 0.985,0.161 0.141,0.018 0.316,0.041 0.467,0.103 0.146,0.059 0.426,0.226 0.426,0.585 0,0.269 -0.18,0.423 -0.272,0.485 -0.1,0.066 -0.21,0.105 -0.29,0.128 -0.174,0.049 -0.374,0.069 -0.536,0.069 -0.185,0 -1.231,-0.092 -3.06,-0.092 -1.765,0 -2.76,0.092 -3.017,0.092 -0.179,0 -0.395,-0.031 -0.577,-0.084 -0.09,-0.026 -0.195,-0.07 -0.295,-0.136 -0.08,-0.054 -0.269,-0.211 -0.269,-0.483 0,-0.441 0.405,-0.585 0.52,-0.621 0.17,-0.048 0.375,-0.071 0.552,-0.087 l 0.541,-0.059 c 0.174,-0.028 0.31,-0.061 0.4,-0.102 0.362,-0.17 0.49,-0.406 0.49,-1.403 l 0,-10.436 c 0,-1.003 -0.126,-1.249 -0.559,-1.447 -0.141,-0.064 -0.298,-0.105 -0.462,-0.133 -0.184,-0.026 -0.356,-0.038 -0.51,-0.056 -0.336,-0.047 -0.436,-0.07 -0.526,-0.108 -0.221,-0.09 -0.446,-0.293 -0.446,-0.641 0,-0.596 0.62,-0.726 0.936,-0.726 0.205,0 1.272,0.115 3.222,0.115 1.949,0 3.034,-0.115 3.245,-0.115 0.351,0 0.913,0.153 0.913,0.726 0,0.341 -0.215,0.546 -0.436,0.641 L 0.967,-0.192 C 0.816,-0.174 0.646,-0.164 0.467,-0.136 0.3,-0.108 0.141,-0.064 0,0"
               id="path11220"
               style="fill:#ffffff;fill-opacity:1;fill-rule:nonzero;stroke:none" /></g><g
             transform="translate(435.7906,269.68401)"
             id="g11222"><path
               d="m 0,0 c 0.385,-0.241 0.595,-0.387 0.931,-0.549 0.703,-0.336 1.68,-0.675 2.968,-0.675 3.407,0 6.016,2.135 6.016,5.113 0,2.924 -1.883,4.338 -4.99,5.715 -0.531,0.236 -1.018,0.446 -1.449,0.657 -0.421,0.208 -0.76,0.403 -1.037,0.613 -0.515,0.4 -0.782,0.841 -0.782,1.547 0,1.213 0.849,2.147 2.452,2.147 1.301,0 2.304,-0.68 2.909,-1.996 0.188,-0.418 0.257,-0.759 0.331,-0.995 0.077,-0.247 0.252,-0.721 0.819,-0.721 0.31,0 0.559,0.172 0.659,0.474 0.036,0.111 0.051,0.221 0.056,0.319 l 0.011,0.33 c 0,0.465 -0.072,0.95 -0.072,1.414 0,0.718 0.072,1.229 0.072,1.529 0,0.41 -0.19,0.982 -0.773,0.982 -0.32,0 -0.51,-0.2 -0.605,-0.349 l -0.2,-0.5 c -0.287,0.18 -0.518,0.326 -0.798,0.459 -0.59,0.275 -1.408,0.554 -2.501,0.554 -2.881,0 -5.064,-1.906 -5.064,-4.622 C -1.047,9.36 0.246,7.683 2.396,6.77 3.301,6.39 4.109,6.082 4.794,5.736 5.456,5.402 5.956,5.061 6.313,4.617 6.634,4.199 6.813,3.681 6.813,3.006 6.813,1.329 5.782,0.326 3.899,0.326 2.286,0.326 0.988,1.229 0.357,2.958 0.2,3.386 0.156,3.763 0.095,4.027 c -0.036,0.144 -0.08,0.336 -0.19,0.495 -0.141,0.2 -0.351,0.324 -0.616,0.324 -0.2,0 -0.492,-0.059 -0.641,-0.37 -0.056,-0.11 -0.072,-0.22 -0.082,-0.3 -0.005,-0.777 0.062,-1.47 0.062,-2.306 0,-0.952 -0.116,-1.529 -0.116,-1.739 0,-0.339 0.151,-0.798 0.706,-0.798 0.282,0 0.461,0.174 0.556,0.29 L 0,0 z"
               id="path11224"
               style="fill:#ffffff;fill-opacity:1;fill-rule:nonzero;stroke:none" /></g><g
             transform="translate(421.11079,276.05409)"
             id="g11226"><path
               d="m 0,0 0,-4.081 c 0,-1.047 0.095,-1.27 0.482,-1.455 0.105,-0.054 0.234,-0.09 0.38,-0.118 l 0.462,-0.059 0.51,-0.118 c 0.216,-0.102 0.416,-0.31 0.416,-0.638 0,-0.601 -0.572,-0.729 -0.888,-0.729 -0.185,0 -1.182,0.118 -3.035,0.118 -1.859,0 -2.857,-0.118 -3.042,-0.118 -0.315,0 -0.887,0.128 -0.887,0.729 0,0.328 0.202,0.536 0.418,0.638 0.095,0.041 0.184,0.067 0.51,0.118 l 0.459,0.059 c 0.146,0.028 0.277,0.064 0.383,0.118 0.384,0.185 0.479,0.408 0.479,1.455 l 0,10.432 c 0,1.014 -0.115,1.239 -0.469,1.404 -0.095,0.046 -0.221,0.079 -0.372,0.102 l -0.459,0.059 -0.493,0.098 c -0.154,0.059 -0.456,0.228 -0.456,0.608 0,0.6 0.607,0.705 0.887,0.705 0.116,0 0.741,-0.046 1.88,-0.046 1.647,0 3.13,0.115 4.428,0.115 3.973,0 6.223,-1.239 6.223,-4.435 0,-2.352 -1.403,-3.848 -3.889,-4.402 l 4.489,-5.261 c 0.431,-0.498 0.937,-0.759 1.365,-0.947 0.239,-0.102 0.444,-0.182 0.595,-0.259 0.085,-0.043 0.19,-0.108 0.28,-0.197 0.095,-0.098 0.195,-0.254 0.195,-0.459 0,-0.524 -0.565,-0.678 -0.842,-0.678 -0.115,0 -0.715,0.093 -1.829,0.093 L 7.095,-7.172 c -0.497,0 -0.951,0.023 -1.375,0.546 L 0.711,-0.339 C 0.495,-0.062 0.367,-0.008 0,0 M 0.01,1.498 C 3.201,1.49 4.248,2.344 4.248,4.612 4.248,6.97 3.191,7.988 0.667,7.988 0.236,7.988 0.1,7.934 0.064,7.906 0.015,7.801 0,7.711 0,7.557 L 0.01,1.498 z"
               id="path11228"
               style="fill:#ffffff;fill-opacity:1;fill-rule:evenodd;stroke:none" /></g><g
             transform="translate(404.8528,276.7505)"
             id="g11230"><path
               d="M 0,0 C 1.657,-0.008 2.339,-0.313 2.696,-1.075 2.77,-1.231 2.822,-1.385 2.86,-1.521 l 0.095,-0.398 c 0.072,-0.254 0.095,-0.326 0.136,-0.4 0.09,-0.167 0.277,-0.349 0.567,-0.349 0.557,0 0.726,0.544 0.726,0.89 0,0.395 -0.141,1.368 -0.141,2.945 0,1.183 0.115,2.016 0.115,2.481 0,0.344 -0.159,0.867 -0.746,0.867 -0.365,0 -0.557,-0.259 -0.636,-0.449 L 2.845,3.545 C 2.817,3.386 2.791,3.209 2.74,3.022 2.691,2.845 2.629,2.681 2.534,2.524 2.119,1.855 1.493,1.616 0,1.506 l 0,4.833 c 0,0.31 0.01,0.492 0.064,0.695 0.015,0.008 0.082,0.043 0.303,0.064 0.223,0.018 0.521,0.018 0.9,0.018 2.445,0 3.497,-0.157 4.028,-1.008 C 5.387,5.967 5.446,5.821 5.487,5.667 5.531,5.5 5.551,5.338 5.572,5.202 5.631,4.884 5.656,4.789 5.702,4.697 5.813,4.471 6.028,4.289 6.349,4.289 c 0.6,0 0.726,0.518 0.726,0.841 0,0.234 -0.095,0.626 -0.095,1.209 0,0.649 0.069,1.041 0.069,1.249 0,0.436 -0.19,0.782 -0.636,0.926 -0.169,0.056 -0.362,0.08 -0.552,0.09 l -0.677,0.013 -0.51,0 c -2.173,0 -4.053,-0.07 -5.721,-0.07 -2.18,0 -3.411,0.093 -3.642,0.093 -0.282,0 -0.888,-0.108 -0.888,-0.703 0,-0.385 0.3,-0.552 0.457,-0.611 L -4.635,7.229 -4.169,7.172 C -4.017,7.147 -3.894,7.111 -3.797,7.067 -3.443,6.9 -3.332,6.68 -3.332,5.664 l 0,-10.433 c 0,-1.046 -0.095,-1.269 -0.475,-1.454 -0.105,-0.054 -0.236,-0.093 -0.387,-0.118 l -0.459,-0.057 c -0.321,-0.054 -0.419,-0.077 -0.508,-0.12 -0.216,-0.1 -0.416,-0.311 -0.416,-0.639 0,-0.6 0.572,-0.726 0.888,-0.726 0.184,0 1.182,0.116 3.034,0.116 5.313,0 8.163,-0.116 8.604,-0.116 0.962,0 1.237,0.241 1.237,1.118 0,0.814 0.092,1.601 0.092,2.343 l -0.005,0.346 c -0.01,0.1 -0.021,0.215 -0.057,0.323 -0.089,0.29 -0.32,0.498 -0.667,0.498 -0.289,0 -0.495,-0.154 -0.615,-0.365 L 6.785,-4.084 C 6.754,-4.217 6.723,-4.374 6.664,-4.548 6.613,-4.715 6.539,-4.894 6.428,-5.084 5.897,-5.979 4.971,-6.29 2.937,-6.29 0.074,-6.29 0,-5.838 0,-3.376 L 0,0 z"
               id="path11232"
               style="fill:#ffffff;fill-opacity:1;fill-rule:nonzero;stroke:none" /></g><g
             transform="translate(390.6286,277.6273)"
             id="g11234"><path
               d="m 0,0 -1.829,-4.476 -2.855,7.89 c -0.5,1.391 -0.736,2.124 -0.736,2.435 0,0.202 0.015,0.356 0.656,0.436 0.275,0.038 0.501,0.056 0.649,0.092 0.231,0.059 0.572,0.231 0.572,0.677 0,0.588 -0.572,0.683 -0.82,0.683 -0.185,0 -1.25,-0.116 -3.243,-0.116 -1.693,0 -2.575,0.136 -2.737,0.136 -0.159,0 -0.362,-0.013 -0.539,-0.11 -0.223,-0.121 -0.349,-0.339 -0.349,-0.593 0,-0.248 0.126,-0.436 0.303,-0.551 0.134,-0.087 0.298,-0.131 0.411,-0.154 0.22,-0.049 0.536,-0.09 0.938,-0.193 0.201,-0.051 0.375,-0.2 0.59,-0.613 0.231,-0.449 0.437,-1.064 0.731,-1.831 l 4.405,-11.59 c 0.126,-0.344 0.274,-0.621 0.431,-0.823 0.121,-0.157 0.357,-0.413 0.682,-0.413 0.29,0 0.511,0.172 0.654,0.32 0.152,0.159 0.293,0.372 0.429,0.613 0.259,0.47 0.564,1.173 0.931,2.101 l 3.917,9.761 c 0.682,1.668 1.098,2.365 1.624,2.56 l 0.577,0.1 c 0.095,0.016 0.254,0.041 0.4,0.131 0.185,0.116 0.311,0.316 0.311,0.559 0,0.6 -0.606,0.706 -0.893,0.706 -0.3,0 -0.99,-0.116 -2.109,-0.116 -1.157,0 -1.924,0.116 -2.244,0.116 -0.28,0 -0.867,-0.118 -0.867,-0.706 0,-0.249 0.141,-0.436 0.32,-0.538 C 0.441,6.421 0.59,6.392 0.693,6.375 0.893,6.344 1.198,6.313 1.588,6.223 1.783,6.185 1.934,6.054 1.934,5.687 1.934,5.223 1.362,3.36 0,0"
               id="path11236"
               style="fill:#ffffff;fill-opacity:1;fill-rule:nonzero;stroke:none" /></g><g
             transform="translate(375.08949,270.533)"
             id="g11238"><path
               d="m 0,0 c -0.408,0.174 -0.554,0.421 -0.554,1.444 l 0,10.436 c 0,1.103 0.187,1.331 0.603,1.444 0.359,0.1 0.718,0.125 0.987,0.161 0.139,0.018 0.316,0.044 0.462,0.103 0.149,0.059 0.428,0.226 0.428,0.585 0,0.269 -0.182,0.423 -0.269,0.485 -0.1,0.066 -0.21,0.105 -0.292,0.128 -0.175,0.049 -0.375,0.069 -0.536,0.069 -0.188,0 -1.229,-0.092 -3.061,-0.092 -1.762,0 -2.757,0.092 -3.014,0.092 -0.182,0 -0.395,-0.028 -0.577,-0.082 -0.09,-0.028 -0.198,-0.072 -0.295,-0.136 -0.082,-0.054 -0.272,-0.21 -0.272,-0.485 0,-0.441 0.405,-0.585 0.523,-0.621 0.167,-0.048 0.375,-0.069 0.547,-0.087 l 0.544,-0.059 c 0.177,-0.025 0.307,-0.061 0.397,-0.102 0.367,-0.17 0.493,-0.406 0.493,-1.403 l 0,-10.436 c 0,-1.003 -0.121,-1.249 -0.557,-1.447 -0.141,-0.061 -0.298,-0.105 -0.467,-0.13 -0.179,-0.029 -0.356,-0.041 -0.508,-0.057 -0.338,-0.049 -0.433,-0.072 -0.528,-0.108 -0.218,-0.092 -0.444,-0.295 -0.444,-0.643 0,-0.593 0.621,-0.726 0.936,-0.726 0.208,0 1.275,0.115 3.222,0.115 1.947,0 3.037,-0.115 3.248,-0.115 0.349,0 0.91,0.156 0.91,0.726 0,0.341 -0.215,0.546 -0.436,0.641 L 0.964,-0.19 C 0.816,-0.174 0.644,-0.162 0.467,-0.133 0.3,-0.108 0.141,-0.064 0,0"
               id="path11240"
               style="fill:#ffffff;fill-opacity:1;fill-rule:nonzero;stroke:none" /></g><g
             transform="translate(353.39799,270.48779)"
             id="g11242"><path
               d="m 0,0 c -0.595,0.305 -0.718,0.687 -0.718,1.855 l 0,8.744 9.522,-11.843 c 0.126,-0.162 0.272,-0.339 0.438,-0.475 0.18,-0.146 0.411,-0.259 0.698,-0.259 0.329,0 0.603,0.154 0.739,0.462 0.051,0.12 0.074,0.249 0.087,0.356 l 0.016,0.349 0,12.424 c 0,1.134 0.112,1.444 0.536,1.672 0.11,0.057 0.231,0.095 0.369,0.128 l 0.421,0.08 c 0.287,0.056 0.369,0.082 0.449,0.121 0.174,0.079 0.402,0.261 0.402,0.597 0,0.27 -0.153,0.472 -0.354,0.575 -0.164,0.087 -0.354,0.108 -0.51,0.108 -0.372,0 -0.975,-0.072 -1.878,-0.072 -1.067,0 -1.878,0.115 -2.434,0.115 -0.28,0 -0.867,-0.118 -0.867,-0.703 0,-0.431 0.408,-0.705 0.728,-0.705 1.096,0 1.475,-0.436 1.475,-1.891 l 0,-8.183 -8.66,10.836 c -0.303,0.403 -0.695,0.577 -1.162,0.577 -0.418,0 -0.857,-0.046 -1.321,-0.046 -0.811,0 -1.367,0.092 -1.693,0.092 -0.221,0 -0.444,-0.015 -0.628,-0.082 -0.203,-0.072 -0.467,-0.259 -0.467,-0.621 0,-0.243 0.115,-0.436 0.29,-0.554 0.141,-0.095 0.3,-0.136 0.402,-0.154 0.18,-0.036 0.413,-0.051 0.644,-0.115 0.475,-0.141 0.788,-0.349 1.119,-0.829 l 0,-10.684 c 0,-1.211 -0.119,-1.57 -0.549,-1.816 -0.098,-0.056 -0.218,-0.097 -0.354,-0.131 -0.149,-0.036 -0.295,-0.056 -0.424,-0.079 -0.295,-0.059 -0.379,-0.082 -0.464,-0.121 -0.182,-0.085 -0.41,-0.272 -0.41,-0.61 0,-0.316 0.215,-0.511 0.397,-0.601 0.185,-0.092 0.405,-0.125 0.631,-0.125 0.534,0 1.18,0.066 1.901,0.066 1.203,0 1.924,-0.092 2.155,-0.092 0.195,0 0.408,0.028 0.59,0.123 0.21,0.115 0.369,0.328 0.369,0.605 0,0.262 -0.128,0.475 -0.344,0.598 L 0.703,-0.177 0.341,-0.118 C 0.226,-0.092 0.11,-0.054 0,0"
               id="path11244"
               style="fill:#ffffff;fill-opacity:1;fill-rule:nonzero;stroke:none" /></g><g
             transform="translate(330.2972,283.8075)"
             id="g11246"><path
               d="m 0,0 c 0.364,-0.169 0.49,-0.408 0.49,-1.403 l 0,-8.463 c 0,-3.65 2.239,-5.433 6.385,-5.433 5.002,0 6.849,2.216 6.849,7.218 l 0,6.678 c 0,1.116 0.172,1.336 0.58,1.447 0.361,0.097 0.674,0.123 0.895,0.159 0.115,0.018 0.28,0.048 0.421,0.12 0.182,0.098 0.351,0.285 0.351,0.57 0,0.3 -0.198,0.492 -0.38,0.579 -0.164,0.08 -0.351,0.1 -0.51,0.1 -0.393,0 -1.088,-0.092 -2.039,-0.092 -1.019,0 -1.786,0.092 -2.273,0.092 -0.182,0 -0.377,-0.028 -0.547,-0.12 C 10.04,1.352 9.858,1.157 9.858,0.87 c 0,-0.385 0.3,-0.552 0.457,-0.611 L 10.802,0.162 11.269,0.103 C 11.418,0.077 11.541,0.046 11.638,0 c 0.365,-0.169 0.493,-0.408 0.493,-1.403 l 0,-7.257 c 0,-3.412 -1.373,-4.861 -4.538,-4.861 -2.658,0 -3.771,1.175 -3.771,3.978 l 0,8.14 c 0,1.1 0.187,1.334 0.603,1.447 0.364,0.097 0.672,0.123 0.89,0.159 0.11,0.018 0.275,0.048 0.413,0.125 0.187,0.1 0.344,0.29 0.344,0.565 0,0.266 -0.154,0.469 -0.354,0.572 C 5.551,1.552 5.361,1.572 5.205,1.572 5.02,1.572 3.976,1.48 2.145,1.48 c -1.763,0 -2.758,0.092 -3.012,0.092 -0.182,0 -0.38,-0.028 -0.549,-0.12 -0.182,-0.1 -0.364,-0.295 -0.364,-0.582 0,-0.385 0.3,-0.552 0.459,-0.611 L -0.836,0.162 -0.372,0.103 C -0.221,0.077 -0.098,0.046 0,0"
               id="path11248"
               style="fill:#ffffff;fill-opacity:1;fill-rule:nonzero;stroke:none" /></g><g
             transform="translate(312.4245,321.6644)"
             id="g11250"><path
               d="M 0,0 C -0.259,-0.21 -1.357,-0.059 -2.699,0.256 -4.166,0.603 -5.772,-0.031 -5.772,-0.031 M 0,2.627 C -0.259,2.416 -1.37,2.568 -2.686,2.965 -4.063,3.378 -5.715,2.778 -5.715,2.778 M 0,5.302 C -0.259,5.092 -1.38,5.241 -2.67,5.72 -3.963,6.2 -5.659,5.631 -5.659,5.631 m -8.321,-5.723 c 0.256,-0.211 1.357,-0.059 2.698,0.256 1.465,0.346 3.073,-0.287 3.073,-0.287 m -5.771,2.657 c 0.256,-0.207 1.367,-0.059 2.683,0.341 1.38,0.411 3.032,-0.189 3.032,-0.189 M -13.98,5.21 c 0.256,-0.21 1.377,-0.059 2.67,0.421 1.293,0.479 2.986,-0.09 2.986,-0.09"
               id="path11252"
               style="fill:none;stroke:#0067b1;stroke-width:1.03100002;stroke-linecap:round;stroke-linejoin:round;stroke-miterlimit:3.86400008;stroke-opacity:1;stroke-dasharray:none" /></g><g
             transform="translate(290.5276,314.04041)"
             id="g11254"><path
               d="m 0,0 29.836,0 c 0,-7.803 -1.339,-14.306 -3.353,-19.278 l -26.483,0 0,6.444 0.977,-0.018 c 0,0 0.914,-0.079 0.844,-0.798 -0.03,-0.325 -0.377,-1.531 0.182,-2.303 0.56,-0.77 1.573,-0.818 2.189,-0.641 0.618,0.171 1.174,0.107 1.518,-0.152 -0.141,0.408 -0.031,0.96 0.326,1.493 0.356,0.536 0.626,1.519 0.067,2.291 -0.557,0.772 -1.809,0.811 -2.127,0.885 -0.703,0.154 -0.492,1.054 -0.492,1.054 0,0 0.364,0.87 1.023,0.585 0.3,-0.131 1.337,-0.834 2.239,-0.541 0.903,0.295 1.263,1.249 1.286,1.893 0.025,0.641 0.259,1.152 0.613,1.401 C 8.214,-7.693 7.724,-7.416 7.326,-6.911 6.931,-6.405 6.085,-5.846 5.182,-6.141 4.276,-6.434 3.85,-7.616 3.686,-7.898 3.319,-8.519 2.532,-8.039 2.532,-8.039 c -0.018,0.012 -0.713,0.615 -0.239,1.156 0.216,0.247 1.203,1.016 1.203,1.968 0,0.957 -0.79,1.59 -1.393,1.814 -0.602,0.223 -1.192,0.579 -1.318,0.992 L 0,-2.098 0,0 z m 20.073,-8.021 c 0,0 -0.698,0.602 -0.221,1.144 0.216,0.246 1.203,1.015 1.203,1.97 0,0.954 -0.792,1.59 -1.393,1.811 -0.602,0.223 -1.013,0.605 -1.141,1.018 -0.128,-0.413 -0.539,-0.795 -1.139,-1.018 -0.603,-0.221 -1.396,-0.857 -1.396,-1.811 0,-0.955 0.988,-1.724 1.206,-1.97 0.475,-0.542 -0.223,-1.144 -0.223,-1.144 0,0 -0.806,-0.493 -1.17,0.128 -0.167,0.285 -0.592,1.465 -1.495,1.759 -0.903,0.293 -1.752,-0.266 -2.147,-0.772 -0.398,-0.505 -0.885,-0.779 -1.316,-0.774 0.351,-0.247 0.584,-0.76 0.61,-1.403 0.026,-0.642 0.382,-1.594 1.285,-1.888 0.906,-0.295 1.942,0.407 2.24,0.538 0.659,0.287 1.023,-0.582 1.023,-0.582 0,0 0.211,-0.901 -0.492,-1.059 -0.316,-0.07 -1.568,-0.111 -2.127,-0.883 -0.556,-0.772 -0.29,-1.755 0.067,-2.288 0.356,-0.536 0.464,-1.088 0.326,-1.496 0.343,0.262 0.9,0.326 1.518,0.152 0.618,-0.177 1.632,-0.129 2.188,0.644 0.56,0.769 0.213,1.977 0.182,2.303 -0.069,0.716 0.85,0.795 0.85,0.795 0,0 0.938,-0.079 0.869,-0.795 -0.031,-0.326 -0.377,-1.534 0.182,-2.303 0.557,-0.773 1.57,-0.821 2.188,-0.644 0.616,0.174 1.175,0.107 1.519,-0.152 -0.141,0.408 -0.031,0.96 0.326,1.496 0.356,0.533 0.626,1.516 0.067,2.288 -0.56,0.772 -1.809,0.813 -2.127,0.883 -0.703,0.158 -0.493,1.059 -0.493,1.059 0,0 0.365,0.869 1.024,0.582 0.298,-0.131 1.336,-0.833 2.239,-0.538 0.903,0.294 1.26,1.246 1.286,1.888 0.025,0.643 0.259,1.156 0.61,1.403 -0.428,-0.008 -0.918,0.269 -1.313,0.774 -0.398,0.506 -1.244,1.065 -2.15,0.772 -0.903,-0.294 -1.329,-1.477 -1.495,-1.759 -0.365,-0.621 -1.152,-0.141 -1.152,-0.141 l -0.018,0.013 z"
               id="path11256"
               style="fill:#acc0e2;fill-opacity:1;fill-rule:evenodd;stroke:none" /></g><g
             transform="translate(290.5276,314.04041)"
             id="g11258"><path
               d="m 0,0 29.836,0 c 0,-7.803 -1.339,-14.306 -3.353,-19.278 l -26.483,0 0,6.444 0.977,-0.018 c 0,0 0.914,-0.079 0.844,-0.798 -0.03,-0.325 -0.377,-1.531 0.182,-2.303 0.56,-0.77 1.573,-0.818 2.189,-0.641 0.618,0.171 1.174,0.107 1.518,-0.152 -0.141,0.408 -0.031,0.96 0.326,1.493 0.356,0.536 0.626,1.519 0.067,2.291 -0.557,0.772 -1.809,0.811 -2.127,0.885 -0.703,0.154 -0.492,1.054 -0.492,1.054 0,0 0.364,0.87 1.023,0.585 0.3,-0.131 1.337,-0.834 2.239,-0.541 0.903,0.295 1.263,1.249 1.286,1.893 0.025,0.641 0.259,1.152 0.613,1.401 C 8.214,-7.693 7.724,-7.416 7.326,-6.911 6.931,-6.405 6.085,-5.846 5.182,-6.141 4.276,-6.434 3.85,-7.616 3.686,-7.898 3.319,-8.519 2.532,-8.039 2.532,-8.039 c -0.018,0.012 -0.713,0.615 -0.239,1.156 0.216,0.247 1.203,1.016 1.203,1.968 0,0.957 -0.79,1.59 -1.393,1.814 -0.602,0.223 -1.192,0.579 -1.318,0.992 L 0,-2.098 0,0 z m 20.073,-8.021 c 0,0 -0.698,0.602 -0.221,1.144 0.216,0.246 1.203,1.015 1.203,1.97 0,0.954 -0.792,1.59 -1.393,1.811 -0.602,0.223 -1.013,0.605 -1.141,1.018 -0.128,-0.413 -0.539,-0.795 -1.139,-1.018 -0.603,-0.221 -1.396,-0.857 -1.396,-1.811 0,-0.955 0.988,-1.724 1.206,-1.97 0.475,-0.542 -0.223,-1.144 -0.223,-1.144 0,0 -0.806,-0.493 -1.17,0.128 -0.167,0.285 -0.592,1.465 -1.495,1.759 -0.903,0.293 -1.752,-0.266 -2.147,-0.772 -0.398,-0.505 -0.885,-0.779 -1.316,-0.774 0.351,-0.247 0.584,-0.76 0.61,-1.403 0.026,-0.642 0.382,-1.594 1.285,-1.888 0.906,-0.295 1.942,0.407 2.24,0.538 0.659,0.287 1.023,-0.582 1.023,-0.582 0,0 0.211,-0.901 -0.492,-1.059 -0.316,-0.07 -1.568,-0.111 -2.127,-0.883 -0.556,-0.772 -0.29,-1.755 0.067,-2.288 0.356,-0.536 0.464,-1.088 0.326,-1.496 0.343,0.262 0.9,0.326 1.518,0.152 0.618,-0.177 1.632,-0.129 2.188,0.644 0.56,0.769 0.213,1.977 0.182,2.303 -0.069,0.716 0.85,0.795 0.85,0.795 0,0 0.938,-0.079 0.869,-0.795 -0.031,-0.326 -0.377,-1.534 0.182,-2.303 0.557,-0.773 1.57,-0.821 2.188,-0.644 0.616,0.174 1.175,0.107 1.519,-0.152 -0.141,0.408 -0.031,0.96 0.326,1.496 0.356,0.533 0.626,1.516 0.067,2.288 -0.56,0.772 -1.809,0.813 -2.127,0.883 -0.703,0.158 -0.493,1.059 -0.493,1.059 0,0 0.365,0.869 1.024,0.582 0.298,-0.131 1.336,-0.833 2.239,-0.538 0.903,0.294 1.26,1.246 1.286,1.888 0.025,0.643 0.259,1.156 0.61,1.403 -0.428,-0.008 -0.918,0.269 -1.313,0.774 -0.398,0.506 -1.244,1.065 -2.15,0.772 -0.903,-0.294 -1.329,-1.477 -1.495,-1.759 -0.365,-0.621 -1.152,-0.141 -1.152,-0.141 l -0.018,0.013 z"
               id="path11260"
               style="fill:none;stroke:#acc0e2;stroke-width:0.244;stroke-linecap:butt;stroke-linejoin:miter;stroke-miterlimit:3.86400008;stroke-opacity:1;stroke-dasharray:none" /></g><g
             transform="translate(261.5873,303.5201)"
             id="g11262"><path
               d="M 0,0 6.798,0 C 6.78,-0.198 6.834,-0.493 7.301,-0.844 6.849,-1.024 5.828,-1.637 5.69,-2.783 5.559,-3.894 7.093,-4.648 8.201,-3.358 c 0.559,0.629 0.505,0.575 0.505,0.575 0,0 0.149,-1.929 1.167,-1.965 1.052,-0.036 1.735,1.123 1.86,1.977 0.057,-0.459 0.457,-1.031 1.593,-1.282 -0.792,-0.434 -0.944,-0.454 -1.516,-0.736 -1.726,-0.86 -1.482,-2.986 0.054,-3.012 -3.078,0 -9.74,0.005 -9.74,0.005 C 1.003,-4.587 0.118,-1.234 0,0"
               id="path11264"
               style="fill:#acc0e2;fill-opacity:1;fill-rule:nonzero;stroke:none" /></g><g
             transform="translate(261.5873,303.5201)"
             id="g11266"><path
               d="M 0,0 6.798,0 C 6.78,-0.198 6.834,-0.493 7.301,-0.844 6.849,-1.024 5.828,-1.637 5.69,-2.783 5.559,-3.894 7.093,-4.648 8.201,-3.358 c 0.559,0.629 0.505,0.575 0.505,0.575 0,0 0.149,-1.929 1.167,-1.965 1.052,-0.036 1.735,1.123 1.86,1.977 0.057,-0.459 0.457,-1.031 1.593,-1.282 -0.792,-0.434 -0.944,-0.454 -1.516,-0.736 -1.726,-0.86 -1.482,-2.986 0.054,-3.012 -3.078,0 -9.74,0.005 -9.74,0.005 C 1.003,-4.587 0.118,-1.234 0,0 z"
               id="path11268"
               style="fill:none;stroke:#acc0e2;stroke-width:0.244;stroke-linecap:butt;stroke-linejoin:miter;stroke-miterlimit:3.86400008;stroke-opacity:1;stroke-dasharray:none" /></g><g
             transform="translate(260.60539,322.73801)"
             id="g11270"><path
               d="m 0,0 11.515,0 c -0.328,-0.144 -0.867,-0.97 -0.474,-2.273 0.351,-1.167 0.528,-1.536 0.528,-1.536 -1.18,0.243 -2.606,-1.645 -0.623,-3.199 0.49,-0.383 0.946,-0.542 1.182,-0.665 -0.238,-0.043 -0.513,-0.095 -0.513,-0.095 l -2.886,0 C 8.504,-7.157 7.003,-6.552 6.326,-7.76 5.302,-7.76 0,-7.768 0,-7.768 L 0,0 z"
               id="path11272"
               style="fill:#acc0e2;fill-opacity:1;fill-rule:nonzero;stroke:none" /></g><g
             transform="translate(260.60539,322.73801)"
             id="g11274"><path
               d="m 0,0 11.515,0 c -0.328,-0.144 -0.867,-0.97 -0.474,-2.273 0.351,-1.167 0.528,-1.536 0.528,-1.536 -1.18,0.243 -2.606,-1.645 -0.623,-3.199 0.49,-0.383 0.946,-0.542 1.182,-0.665 -0.238,-0.043 -0.513,-0.095 -0.513,-0.095 l -2.886,0 C 8.504,-7.157 7.003,-6.552 6.326,-7.76 5.302,-7.76 0,-7.768 0,-7.768 L 0,0 z"
               id="path11276"
               style="fill:none;stroke:#acc0e2;stroke-width:0.244;stroke-linecap:butt;stroke-linejoin:miter;stroke-miterlimit:3.86400008;stroke-opacity:1;stroke-dasharray:none" /></g><g
             transform="translate(290.4337,279.7742)"
             id="g11278"><path
               d="m 0,0 0,-10.112 c -3.212,1.088 -12.49,4.02 -20.612,14.506 l 15.335,0 C -6.149,3.758 -7.942,3.114 -9.284,2.142 -10.199,1.475 -10.571,-0.087 -10.676,-0.416 -9.44,0.688 -8.809,1.1 -7.316,1.1 -5.82,1.1 -5.364,1.09 -3.427,2.868 -3.645,2.183 -4.122,1.585 -4.648,0.98 -5.174,0.375 -6.677,-1.621 -5.9,-4.497 c 0.767,1.416 1.424,3.473 3.309,4.243 C -1.383,0.241 0,0 0,0"
               id="path11280"
               style="fill:#acc0e2;fill-opacity:1;fill-rule:nonzero;stroke:none" /></g><g
             transform="translate(290.4337,279.7742)"
             id="g11282"><path
               d="m 0,0 0,-10.112 c -3.212,1.088 -12.49,4.02 -20.612,14.506 l 15.335,0 C -6.149,3.758 -7.942,3.114 -9.284,2.142 -10.199,1.475 -10.571,-0.087 -10.676,-0.416 -9.44,0.688 -8.809,1.1 -7.316,1.1 -5.82,1.1 -5.364,1.09 -3.427,2.868 -3.645,2.183 -4.122,1.585 -4.648,0.98 -5.174,0.375 -6.677,-1.621 -5.9,-4.497 c 0.767,1.416 1.424,3.473 3.309,4.243 C -1.383,0.241 0,0 0,0 z"
               id="path11284"
               style="fill:none;stroke:#acc0e2;stroke-width:0.244;stroke-linecap:butt;stroke-linejoin:miter;stroke-miterlimit:3.86400008;stroke-opacity:1;stroke-dasharray:none" /></g><g
             transform="translate(278.4944,295.7068)"
             id="g11286"><path
               d="M 0,0 9.217,0 C 8.814,2.032 8.822,3.33 6.734,5.135 6.164,5.11 5.015,4.943 4.492,4.474 3.971,4.004 3.65,2.924 3.327,1.837 3.004,0.749 1.662,0.2 0.552,1.493 0.103,1.26 0.079,0.418 0,0"
               id="path11288"
               style="fill:#acc0e2;fill-opacity:1;fill-rule:nonzero;stroke:none" /></g><g
             transform="translate(278.4944,295.7068)"
             id="g11290"><path
               d="M 0,0 9.217,0 C 8.814,2.032 8.822,3.33 6.734,5.135 6.164,5.11 5.015,4.943 4.492,4.474 3.971,4.004 3.65,2.924 3.327,1.837 3.004,0.749 1.662,0.2 0.552,1.493 0.103,1.26 0.079,0.418 0,0 z"
               id="path11292"
               style="fill:none;stroke:#acc0e2;stroke-width:0.244;stroke-linecap:butt;stroke-linejoin:miter;stroke-miterlimit:3.86400008;stroke-opacity:1;stroke-dasharray:none" /></g><g
             transform="translate(290.46741,333.39729)"
             id="g11294"><path
               d="m 0,0 -29.944,0 0,-19.303 c 0,-36.696 29.903,-44.448 29.903,-44.448 0,0 29.985,7.752 29.985,44.448 L 29.944,0 0,0 z"
               id="path11296"
               style="fill:none;stroke:#0067b1;stroke-width:1.95700002;stroke-linecap:butt;stroke-linejoin:miter;stroke-miterlimit:3.86400008;stroke-opacity:1;stroke-dasharray:none" /></g><g
             transform="translate(279.24339,304.442)"
             id="g11298"><path
               d="m 0,0 c -1.201,0.105 -2.368,-0.549 -2.437,-1.454 -0.054,-0.68 0.654,-1.037 0.782,-1.147 -0.803,-0.262 -1.893,-0.082 -2.534,0.031 -0.995,0.177 -1.462,-0.141 -1.657,-0.667 -0.318,-0.867 0.495,-1.552 1.526,-1.737 -0.462,-0.236 -1.108,-0.533 -1.524,-0.739 -0.561,-0.269 -1.19,-0.939 -1.198,-1.693 -0.005,-0.336 0.08,-1.27 1.232,-1.303 0,-0.682 -0.942,-0.7 -0.942,-1.762 0,-0.803 0.513,-1.093 1.28,-1.093 0.562,0 1.283,0.467 1.411,0.836 0.223,0.642 -0.069,1.652 0.742,1.698 0.433,-0.915 1.149,-1.116 1.654,-0.9 1.424,0.613 0.59,2.127 1.473,2.688 0.608,-0.626 0.954,-0.767 1.477,-0.746 1.809,0.072 1.057,2.758 2.66,3.855 0.549,0.375 1.339,0.46 2.029,0.539 0,0 -3.609,3.391 -5.974,3.594 z m -5.926,-3.689 c 0,-0.487 -0.774,-2.28 -2.06,-1.944 -0.772,0.2 -0.885,1.559 -0.964,1.929 -0.536,-0.659 -1.367,-1.729 -2.527,-1.047 -1.072,0.636 -0.279,2.424 1.124,2.986 -1.057,0.739 -0.362,1.87 1.175,1.711 0,0 2.195,-0.503 2.803,0.077 -0.728,0.69 -0.133,1.526 0.749,1.526 1.088,0 2.137,-0.351 2.843,-0.738 -0.385,1.221 -0.483,2.301 0.587,2.062 1.09,-0.244 2.409,-0.834 2.642,-1.942 -0.105,-0.695 0.472,-0.944 0.28,-1.077 -2.245,0.739 -4.353,-1.293 -2.378,-2.453 -0.967,-0.323 -2.242,0.008 -2.85,0.067 -1.478,0.139 -1.424,-1.157 -1.424,-1.157 z m -0.043,9.158 c 0.3,0.172 0.767,0.005 0.903,0.359 0.071,0.182 0.01,0.398 -0.008,0.5 C -5.21,7.039 -5.643,7.644 -6.539,7.637 -7.275,7.629 -7.88,6.39 -8.047,6.285 c 0.605,0.633 0.51,1.395 0.359,1.947 -0.028,0.105 -0.074,0.231 -0.105,0.323 -0.103,0.323 -0.154,0.531 -0.508,0.721 -0.064,0.033 -0.195,0.072 -0.282,0.097 -0.475,0.139 -1.013,-0.095 -1.237,-0.351 0.195,1.09 0.044,1.988 -1.121,2.193 -0.631,0.11 -1.39,-0.256 -1.511,-1.113 -0.166,-1.211 0.485,-1.56 1.186,-2.011 -0.596,-0.057 -0.955,-0.08 -1.193,-0.2 -0.572,-0.293 -0.729,-0.832 -0.693,-1.439 0.08,-1.324 1.773,-1.981 3.166,-2.194 -1.086,-0.264 -1.273,-0.654 -1.35,-1.098 -0.192,-1.087 1.462,-2.154 2.609,-2.431 0.641,-0.152 1.293,-0.531 1.942,-0.909 0.277,0.075 0.282,0.111 0.413,0.203 0,0 -0.841,0.706 0.149,1.378 0.315,0.213 1.241,0.159 2.031,-0.034 0.654,-0.159 1.409,-0.556 1.409,-0.556 0,0 -0.221,0.749 -0.282,1.21 -0.034,0.247 0.071,0.49 0.071,0.49 0,0 -0.544,0.072 -1.182,0.375 -1.652,0.787 -2.545,2.152 -1.793,2.583 z m 5.171,11.349 c -0.987,-0.157 -2.08,0.087 -2.234,-1.083 -0.862,0.395 -1.426,-0.12 -1.698,-0.403 0.038,0.629 -0.011,1.522 -0.398,2.435 -0.321,0.821 -1.195,0.79 -1.642,0.679 -0.256,0.272 -0.461,0.485 -0.531,0.898 -0.136,0.79 0.288,1.478 1.055,1.478 0.256,0 1.09,-0.531 1.249,-0.611 -0.321,0.544 -0.544,1.06 -0.544,1.639 0,1.075 0.529,1.958 1.472,1.958 0.88,0 1.345,-0.803 1.152,-1.958 0.642,0.48 0.865,0.652 1.121,0.673 0.38,0.03 0.688,-0.093 0.893,-0.319 -0.146,-0.246 -0.303,-0.595 -0.303,-0.99 0,-0.515 0.064,-0.756 0.213,-1.157 -0.367,0.154 -0.962,0.426 -1.326,0.059 -0.18,-0.179 -0.195,-0.348 -0.262,-0.592 -0.331,-1.221 1.783,-2.706 1.783,-2.706 z"
               id="path11300"
               style="fill:none;stroke:#0067b1;stroke-width:1.03100002;stroke-linecap:round;stroke-linejoin:round;stroke-miterlimit:3.86400008;stroke-opacity:1;stroke-dasharray:none" /></g><g
             transform="translate(290.46629,297.1797)"
             id="g11302"><path
               d="m 0,0 3.835,-11.49 6.977,0 -5.633,-4.109 1.855,-6.295 -7.078,4.479 L 0,0 z"
               id="path11304"
               style="fill:#acc0e2;fill-opacity:1;fill-rule:nonzero;stroke:none" /></g><g
             transform="translate(290.46629,297.1797)"
             id="g11306"><path
               d="m 0,0 3.835,-11.49 6.977,0 -5.633,-4.109 1.855,-6.295 -7.078,4.479 L 0,0 z"
               id="path11308"
               style="fill:none;stroke:#0067b1;stroke-width:1.03100002;stroke-linecap:round;stroke-linejoin:round;stroke-miterlimit:3.86400008;stroke-opacity:1;stroke-dasharray:none" /></g><g
             transform="translate(290.46741,279.7742)"
             id="g11310"><path
               d="m 0,0 c 0,0 -1.783,0.298 -3.027,-0.436 -1.011,-0.595 -1.721,-1.447 -2.906,-4.061 0,0 -0.873,2.45 0.667,4.659 1.282,1.839 1.246,1.357 1.805,2.701 0,0 -1.446,-1.583 -2.821,-1.732 -1.378,-0.146 -2.378,0.444 -4.428,-1.549 0.77,2.745 1.719,2.84 3.715,3.886 0.951,0.498 1.559,0.675 2.231,1.447 0.634,0.726 0.842,1.411 1.416,2.247 0.577,0.834 0.962,7.234 0.59,8.776 -0.482,2.008 0.221,3.868 -6.246,7.926 -0.413,0.259 -0.957,0.49 -1.493,0.66 0.136,0.087 -0.146,0.302 -0.223,0.551 0.395,-0.844 1.762,-0.718 2.342,-0.51 0.069,-1.735 4.063,-2.307 5.569,-1.729 0.162,0.523 0.354,1.334 0.31,2.819 0.747,-0.149 1.027,-0.447 1.858,2.185 0.42,1.296 0.595,2.945 0.595,2.945 L 0,0 z m -8.17,44.594 c 0.079,0.218 0.266,0.308 0.487,0.341 0.236,0.033 0.798,0.085 1.17,0.013 -0.562,0.351 -0.841,1.218 -0.726,1.824 0.118,0.61 0.431,1.239 1.182,1.239 0.511,0 0.596,-0.377 0.788,-0.634 -0.223,0.321 -0.164,0.826 -0.121,1.08 0.159,0.962 0.696,1.472 1.624,1.344 1.031,-0.144 1.616,-1.028 1.616,-1.975 0,-0.531 -0.192,-0.741 -0.513,-0.903 0.193,0.018 0.323,0.041 0.513,0 0.48,-0.095 1.029,-0.708 1.029,-1.367 0,-0.611 -0.782,-1.301 -1.873,-1.216 0.667,-0.008 0.726,0.105 1.216,-0.046 0.767,-0.239 1.037,-0.962 1.065,-1.663 0.036,-0.841 0.087,-2.434 -1.07,-2.785 0.924,-0.121 1.142,-0.629 1.219,-1.719 0.061,-0.877 0.079,-2.165 -0.124,-2.683 -0.146,-0.234 -0.287,-0.326 -0.482,-0.652 0,0 -0.1,1.298 -0.487,1.767 -0.421,0.508 -1.552,0.503 -2.499,-0.043 0,0 0.754,0.885 0.916,2.067 0.182,0.914 -0.092,2.209 -0.888,2.209 -0.459,0 -1.059,-0.641 -1.059,-0.641 0,0 0.467,1.336 -0.403,1.919 -1.218,0.82 -2.278,0.112 -2.278,0.112 0,0 0.301,1.262 -0.302,2.412 z m -3.576,-14.378 c -0.908,-0.295 -1.103,-0.613 -1.152,-1.211 -0.072,-0.911 0.79,-1.68 2.853,-2.358 -0.162,-0.028 -0.583,-0.474 -0.732,-1.051 -0.11,0.621 -0.636,1.128 -1.267,1.462 -0.587,0.31 -1.321,0.505 -1.613,0.518 -0.344,0.013 -0.483,-0.167 -0.583,-0.415 -0.23,0.035 -0.459,0.128 -0.602,0.177 -1.062,0.387 -2.632,1.297 -2.596,2.413 0.025,0.819 1.218,0.144 1.18,0.926 -0.026,0.495 -0.126,0.719 -0.357,1.091 -0.059,0.133 -0.323,0.326 -0.441,0.39 -0.185,0.102 -0.508,0.182 -0.816,0.133 -0.462,0.044 -0.803,0.218 -1.016,0.508 -0.072,0.238 -0.164,0.554 -0.277,0.803 -0.072,0.149 -0.236,0.274 -0.351,0.336 -0.036,1.069 0.995,1.208 1.78,1.352 0,0 -0.621,0.287 -0.834,0.42 -1.318,0.834 -1.462,1.883 -1.254,2.419 0.339,0.88 0.993,1.116 1.529,1.027 0,0 -0.69,1.675 -0.67,2.37 0.034,1.008 0.421,1.667 1.501,1.641 1.008,-0.023 1.157,-0.787 1.39,-1.598 0.164,-0.572 0.121,-1.215 0.121,-1.569 0.523,0.579 1.162,0.672 1.688,0.407 0.408,-0.184 0.513,-0.372 0.654,-0.733 0.072,-0.18 0.136,-0.901 0.092,-1.129 -0.061,-0.51 -0.246,-1.041 -0.856,-1.842 0,0 0.715,0.629 1.241,0.554 0.569,-0.082 0.913,-0.372 1.098,-0.872 -0.21,-0.213 -0.459,-0.513 -0.49,-1.129 -0.033,-0.664 0.349,-1.203 0.664,-1.647 0,0 -1.08,0.252 -1.385,-0.307 -0.533,-0.98 0.603,-2.235 2.36,-2.807 l -0.859,-0.279 z"
               id="path11312"
               style="fill:none;stroke:#0067b1;stroke-width:1.03100002;stroke-linecap:round;stroke-linejoin:round;stroke-miterlimit:3.86400008;stroke-opacity:1;stroke-dasharray:none" /></g><g
             transform="translate(290.46741,333.39729)"
             id="g11314"><path
               d="M 0,0 0,-63.484"
               id="path11316"
               style="fill:none;stroke:#0067b1;stroke-width:1.67999995;stroke-linecap:butt;stroke-linejoin:miter;stroke-miterlimit:3.86400008;stroke-opacity:1;stroke-dasharray:none" /></g><g
             transform="translate(291.5045,301.1879)"
             id="g11318"><path
               d="m 0,0 c 0,0 0.913,-0.077 0.846,-0.798 -0.033,-0.326 -0.379,-1.531 0.18,-2.303 0.559,-0.77 1.572,-0.816 2.188,-0.642 0.618,0.172 1.175,0.108 1.519,-0.151 -0.139,0.41 -0.031,0.959 0.326,1.493 0.356,0.536 0.625,1.518 0.069,2.291 C 4.569,0.662 3.317,0.7 2.999,0.775 2.298,0.929 2.509,1.829 2.509,1.829 c 0,0 0.361,0.872 1.021,0.585 C 3.83,2.286 4.866,1.58 5.769,1.873 6.675,2.17 7.031,3.122 7.054,3.766 7.08,4.41 7.316,4.917 7.667,5.169 7.236,5.161 6.746,5.436 6.351,5.941 5.954,6.449 5.107,7.006 4.204,6.711 3.299,6.418 2.873,5.236 2.709,4.956 2.342,4.333 1.554,4.812 1.554,4.812 L 1.537,4.825 c 0,0 -0.696,0.603 -0.221,1.144 0.215,0.246 1.203,1.019 1.203,1.97 0,0.955 -0.79,1.588 -1.393,1.811 -0.6,0.224 -1.19,0.58 -1.318,0.993 L -1.07,10.756 -1.077,0.021 0,0 z m 19.095,4.83 c 0,0 -0.697,0.603 -0.22,1.144 0.215,0.247 1.203,1.019 1.203,1.97 0,0.955 -0.793,1.591 -1.393,1.814 -0.603,0.221 -1.013,0.603 -1.142,1.016 C 17.418,10.361 17.005,9.979 16.405,9.758 15.802,9.535 15.012,8.899 15.012,7.944 c 0,-0.951 0.985,-1.723 1.203,-1.97 0.474,-0.541 -0.223,-1.144 -0.223,-1.144 0,0 -0.806,-0.492 -1.17,0.131 C 14.655,5.243 14.229,6.423 13.326,6.718 12.423,7.011 11.574,6.454 11.179,5.946 10.782,5.441 10.294,5.169 9.863,5.174 10.215,4.925 10.448,4.415 10.474,3.771 10.499,3.13 10.856,2.178 11.759,1.88 c 0.905,-0.295 1.942,0.411 2.242,0.539 0.657,0.29 1.021,-0.582 1.021,-0.582 0,0 0.21,-0.901 -0.49,-1.057 -0.318,-0.072 -1.57,-0.113 -2.129,-0.885 -0.557,-0.772 -0.29,-1.755 0.066,-2.288 0.357,-0.537 0.465,-1.086 0.326,-1.496 0.347,0.262 0.901,0.326 1.519,0.151 0.618,-0.174 1.631,-0.128 2.191,0.644 0.556,0.772 0.21,1.978 0.179,2.304 -0.067,0.718 0.849,0.795 0.849,0.795 0,0 0.939,-0.077 0.87,-0.795 -0.028,-0.326 -0.377,-1.532 0.182,-2.304 0.557,-0.772 1.57,-0.818 2.188,-0.644 0.616,0.175 1.175,0.108 1.519,-0.151 -0.141,0.41 -0.031,0.959 0.325,1.496 0.36,0.533 0.626,1.516 0.067,2.288 -0.559,0.772 -1.808,0.813 -2.126,0.885 -0.703,0.156 -0.493,1.057 -0.493,1.057 0,0 0.364,0.872 1.024,0.582 0.297,-0.128 1.336,-0.834 2.239,-0.539 0.903,0.298 1.26,1.25 1.285,1.891 0.026,0.644 0.259,1.154 0.611,1.403 C 24.795,5.166 24.305,5.441 23.91,5.946 23.513,6.454 22.666,7.011 21.761,6.718 20.858,6.423 20.432,5.241 20.265,4.961 19.901,4.338 19.113,4.817 19.113,4.817 L 19.095,4.83 z m -5.135,11.828 0,12.219 c 0,0 1.852,1.467 4.615,0.536 2.706,-0.913 4.03,-0.221 4.03,-0.221 l 0,-11.469 c -0.554,-0.316 -2.432,0.062 -4.153,0.282 -3.623,0.464 -4.492,-1.347 -4.492,-1.347 z m 0,0 0,12.219 c 0,0 -1.852,1.467 -4.615,0.536 C 6.639,28.5 5.315,29.192 5.315,29.192 l 0,-11.469 c 0.554,-0.316 2.432,0.062 4.153,0.282 3.625,0.464 4.492,-1.347 4.492,-1.347 z m 10.394,11.903 0,-12.31 c 0,0 -2.15,-0.76 -4.581,-0.206 -2.237,0.513 -4.192,0.047 -5.793,-0.708 l -0.02,1.321 0,12.219 c 0,0 1.852,1.467 4.615,0.536 2.706,-0.913 4.03,-0.221 4.03,-0.221 l -0.031,-0.723 c 0.646,-0.223 1.78,0.092 1.78,0.092 z m -20.729,0 0,-12.31 c 0,0 2.029,-0.801 4.527,-0.206 2.232,0.531 4.179,0.098 5.777,-0.656 l 0.031,1.269 0,12.219 c 0,0 -1.852,1.467 -4.615,0.536 C 6.639,28.5 5.315,29.192 5.315,29.192 L 5.346,28.469 C 4.699,28.246 3.625,28.561 3.625,28.561 z M -3.532,4.243 c 0.287,-0.059 0.556,-0.146 0.772,-0.036 0.626,0.31 1.323,2.891 1.536,4.166 -0.526,2.316 -1.613,2.421 -1.613,2.421 0.02,0.429 0.167,0.711 0.369,1.191 0.341,0.821 0.277,1.2 0.244,1.634 -0.021,0.166 -0.182,0.951 -0.272,1.19 -0.29,0.79 -1.252,0.759 -1.696,0.685 -0.413,-0.069 -1,-0.393 -1,-0.393 0,0 1.157,1.293 0.944,2.979 -0.162,1.287 -0.893,1.813 -1.973,0.659 0.672,2.324 -1.667,2.447 -2.278,2.219 -1.636,-0.613 -1.495,-2.104 0.547,-3.017 -0.285,0.157 -1.255,0.557 -1.722,0.392 -1,-0.348 -0.451,-1.798 -0.189,-2.349 0.502,-1.047 1.254,-1.665 1.908,-2.109 -0.726,0.087 -1.118,-0.01 -1.403,-0.151 0.172,-0.118 0.513,-0.431 0.721,-1.139 0.428,-1.457 0.09,-3.142 0.09,-3.142 0.446,0.453 0.869,0.728 1.336,0.62 1.729,-0.405 -0.046,-2.593 1.003,-3.768 0.703,1.839 2.645,0.885 2.676,-2.052 z m -5.882,-1.09 c -0.765,-0.27 -2.068,-0.293 -2.368,0.584 -0.27,0.793 0.692,1.486 0.692,1.486 -0.413,0.133 -0.936,0.346 -1.236,0.5 -0.716,0.364 -1.598,0.777 -1.616,1.762 -0.013,0.875 0.764,1.221 1.203,1.334 l 0.834,0.264 c 0,0 -2.211,0.696 -2.465,2.035 -0.203,1.072 0.641,1.254 1.472,1.077 -1.603,2.073 0.082,3.24 0.79,3.248 0.695,0.005 1.785,-0.077 1.334,-2.219 0.136,0.102 0.451,0.618 0.849,0.638 1.157,0.067 1.419,-1.711 1.475,-2.319 0.09,-0.961 0,-1.336 -0.097,-2.1 0.567,0.566 0.959,0.708 1.275,0.636 0.7,-0.159 1.041,-0.488 0.772,-2.001 -0.118,-0.649 -0.162,-1.157 0.292,-1.783 0.813,2.05 2.783,0.457 2.67,-2.037 0.016,-0.99 -0.033,-2.226 -0.3,-2.814 -0.536,-0.272 -1.867,-0.351 -3.111,-0.072 -2.606,0.59 -2.465,1.781 -2.465,1.781 z m -1.858,12.151 c -0.892,0.349 -1.518,-0.01 -1.8,-0.344 -0.162,0.449 -0.424,0.66 -0.688,0.775 0.352,0.228 0.78,-0.09 0.78,-0.09 -0.534,0.3 -1.362,1.167 -1.585,1.421 0.023,0.48 0.12,1.586 -0.726,1.922 0.082,0.749 0.703,0.967 1.157,0.98 l 1.077,0.105 c 0,0 -1.944,1.331 -1.801,2.585 0.121,1.086 0.837,1.024 1.603,0.652 -0.805,2.152 0.883,3.022 1.473,2.96 0.587,-0.061 1.547,-0.692 0.408,-2.642 0.292,0.105 0.823,0.377 1.218,0.303 1.134,-0.216 1.491,-1.962 1.252,-3.16 -1.093,-0.708 -1.047,-1.886 0.936,-2.822 -1.336,0.656 -2.421,0.628 -2.242,-0.811 0.259,-2.101 2.278,-3.273 2.278,-3.273 -0.651,0.121 -1.208,-0.023 -1.429,-0.139 -0.602,0.342 -0.985,-0.035 -1.092,-0.161 -0.17,-0.2 -0.331,-0.352 -0.331,-0.352 0,0 0.487,1.716 -0.488,2.091 z"
               id="path11320"
               style="fill:none;stroke:#0067b1;stroke-width:1.03100002;stroke-linecap:round;stroke-linejoin:round;stroke-miterlimit:3.86400008;stroke-opacity:1;stroke-dasharray:none" /></g><g
             transform="translate(261.14529,305.37151)"
             id="g11322"><path
               d="m 0,0 8.758,0 c 0,0 0.282,-0.092 1.028,-0.333 0.516,-0.162 1.524,-0.778 1.524,-0.778 0,0 -0.387,-0.128 -1.236,-0.054 -0.347,0.034 -0.865,0.123 -0.865,0.123 0,0 -1.731,0.393 -1.97,-0.828 l -6.941,0 L 0,0 z"
               id="path11324"
               style="fill:#0067b1;fill-opacity:1;fill-rule:nonzero;stroke:none" /></g><g
             transform="translate(260.53149,315.02859)"
             id="g11326"><path
               d="m 0,0 6.416,0 c 0,0 -0.524,-1.095 0.195,-1.87 C 5.351,-1.87 0,-1.868 0,-1.868 L 0,0 z"
               id="path11328"
               style="fill:#0067b1;fill-opacity:1;fill-rule:nonzero;stroke:none" /></g><g
             transform="translate(269.3107,315.02859)"
             id="g11330"><path
               d="m 0,0 3.232,0 c 0,0 -1.706,-0.141 -1.59,-1.316 C 0.7,-0.89 0.113,-1.565 0.113,-1.565 c 0,0 0.1,0.667 0.033,1.098 C 0.105,-0.187 0,0 0,0"
               id="path11332"
               style="fill:#0067b1;fill-opacity:1;fill-rule:evenodd;stroke:none" /></g><g
             transform="translate(260.63789,324.6067)"
             id="g11334"><path
               d="m 0,0 11.372,0 c 0,0 -0.401,-0.913 0.467,-1.716 -0.106,-0.031 -0.203,-0.057 -0.357,-0.154 L 0,-1.87 0,0 z"
               id="path11336"
               style="fill:#0067b1;fill-opacity:1;fill-rule:nonzero;stroke:none" /></g><g
             transform="translate(278.4919,295.71919)"
             id="g11338"><path
               d="m 0,0 9.212,0 c 0,0 0.123,-0.534 0.141,-1.87 l -12.613,0 c 0,0 0.053,0.48 0.12,1.011 0.041,0.315 0.249,0.556 0.567,0.554 0.831,-1.598 2.034,-0.903 2.381,-0.28 C -0.072,-0.369 0,0 0,0"
               id="path11340"
               style="fill:#0067b1;fill-opacity:1;fill-rule:nonzero;stroke:none" /></g><g
             transform="translate(263.6003,295.70419)"
             id="g11342"><path
               d="m 0,0 9.832,-0.005 c 0,0 -0.041,-0.372 -0.302,-0.583 C 9.217,-0.839 8.855,-1.203 8.906,-1.85 l -8.278,0 L 0,0 z"
               id="path11344"
               style="fill:#0067b1;fill-opacity:1;fill-rule:nonzero;stroke:none" /></g><g
             transform="translate(289.0269,324.6306)"
             id="g11346"><path
               d="m 0,0 1.49,0 0,-1.87 -0.785,0 c 0,0 -0.233,1.529 -1.708,1.365 C -0.208,-0.259 0,0 0,0"
               id="path11348"
               style="fill:#0067b1;fill-opacity:1;fill-rule:nonzero;stroke:none" /></g><g
             transform="translate(268.42751,286.08459)"
             id="g11350"><path
               d="m 0,0 18.169,0 c 0,0 -0.212,-0.413 -0.402,-0.723 -0.216,-0.36 -0.585,-0.808 -0.975,-1.145 l -15.445,0 L 0,0 z"
               id="path11352"
               style="fill:#0067b1;fill-opacity:1;fill-rule:nonzero;stroke:none" /></g><g
             transform="translate(290.4912,295.71919)"
             id="g11354"><path
               d="m 0,0 26.84,0 c 0,0 -0.288,-0.739 -0.685,-1.87 l -26.237,0 L 0,0 z"
               id="path11356"
               style="fill:#0067b1;fill-opacity:1;fill-rule:nonzero;stroke:none" /></g><g
             transform="translate(290.46629,315.01331)"
             id="g11358"><path
               d="m 0,0 29.913,0 c 0,0 -0.013,-0.811 -0.023,-1.868 L 0,-1.868 0,0 z"
               id="path11360"
               style="fill:#0067b1;fill-opacity:1;fill-rule:nonzero;stroke:none" /></g><g
             transform="translate(309.2019,305.3838)"
             id="g11362"><path
               d="m 0,0 c 0.736,-0.085 1.306,-0.711 1.306,-1.47 0,-0.818 -0.662,-1.478 -1.478,-1.478 -0.757,0 -1.38,0.565 -1.47,1.296 0.208,-0.359 0.598,-0.603 1.047,-0.603 0.664,0 1.205,0.539 1.205,1.206 C 0.61,-0.598 0.364,-0.208 0,0"
               id="path11364"
               style="fill:#0067b1;fill-opacity:1;fill-rule:nonzero;stroke:none" /></g><g
             transform="translate(291.66119,305.3838)"
             id="g11366"><path
               d="m 0,0 c 0.734,-0.085 1.306,-0.711 1.306,-1.47 0,-0.818 -0.665,-1.478 -1.48,-1.478 -0.755,0 -1.378,0.565 -1.47,1.296 0.21,-0.359 0.6,-0.603 1.046,-0.603 0.667,0 1.208,0.539 1.208,1.206 C 0.61,-0.598 0.364,-0.208 0,0"
               id="path11368"
               style="fill:#0067b1;fill-opacity:1;fill-rule:nonzero;stroke:none" /></g><g
             transform="translate(290.4563,308.38499)"
             id="g11370"><path
               d="M 0,0 C 0,0.736 -0.562,3.381 -1.791,3.591"
               id="path11372"
               style="fill:none;stroke:#0067b1;stroke-width:0.77700001;stroke-linecap:round;stroke-linejoin:round;stroke-miterlimit:3.86400008;stroke-opacity:1;stroke-dasharray:none" /></g><g
             transform="translate(288.6689,311.96719)"
             id="g11374"><path
               d="M 0,0 C 0.046,0.382 0.028,0.552 0.308,1.085 0.587,1.619 0.68,2.327 0.634,2.609 0.831,2.906 1.167,3.114 1.213,3.73 1.26,4.345 1.349,5.587 1.17,6.577 0.988,7.57 0.259,7.619 0.028,7.649 0.439,7.847 0.839,8.078 1.021,8.922 1.201,9.766 1.07,10.789 1.07,10.789 l 0.728,0 0,-13.921 c 0,0 -0.138,0.351 -0.202,0.728 C 1.365,-1.444 0.813,-0.041 0,0"
               id="path11376"
               style="fill:#0067b1;fill-opacity:1;fill-rule:nonzero;stroke:none" /></g></g></g></g></g></svg>